<svg width="329" height="96" viewBox="0 0 329 96" fill="none" xmlns="http://www.w3.org/2000/svg">
<g clip-path="url(#clip0_2018_2)">
<path d="M302.8 0.000312H26.2143C25.2061 0.000312 24.21 0.000312 23.2045 0.005112C22.3628 0.009912 21.5278 0.023856 20.678 0.035592C18.8318 0.0545563 16.99 0.196335 15.1685 0.459696C13.3496 0.72879 11.5877 1.23611 9.9423 1.9645C8.29895 2.69904 6.79737 3.65351 5.49205 4.79328C4.17986 5.92984 3.08606 7.24355 2.25269 8.6839C1.41702 10.1214 0.837567 11.6618 0.534339 13.2519C0.228227 14.84 0.0635058 16.4464 0.0416529 18.0567C0.0161388 18.7925 0.0134444 19.5308 0 20.2667V75.741C0.0134444 76.4862 0.0161388 77.2081 0.0416529 77.9535C0.0635125 79.5637 0.228234 81.1701 0.534339 82.7581C0.83673 84.3491 1.41622 85.8904 2.25269 87.3284C3.08568 88.7641 4.17964 90.0725 5.49205 91.2027C6.79243 92.3475 8.29497 93.3027 9.9423 94.0316C11.5877 94.7619 13.3494 95.2723 15.1685 95.5455C16.9903 95.8068 18.8319 95.9486 20.678 95.9698C21.5278 95.9862 22.3628 95.9955 23.2045 95.9955C24.21 96.0003 25.2062 96.0003 26.2143 96.0003H302.8C303.789 96.0003 304.793 96.0003 305.781 95.9955C306.619 95.9955 307.478 95.9862 308.315 95.9698C310.158 95.9497 311.996 95.8079 313.814 95.5455C315.639 95.2703 317.407 94.7601 319.06 94.0316C320.706 93.3022 322.207 92.3472 323.507 91.2027C324.816 90.068 325.912 88.7606 326.755 87.3284C327.586 85.8893 328.16 84.3482 328.458 82.7581C328.764 81.1698 328.935 79.5639 328.968 77.9535C328.979 77.2081 328.979 76.4862 328.979 75.741C329 74.869 329 74.0019 329 73.1158V22.887C329 22.0081 329 21.1362 328.979 20.2667C328.979 19.5308 328.979 18.7925 328.968 18.0566C328.935 16.4461 328.764 14.8401 328.458 13.2518C328.159 11.6626 327.585 10.1223 326.755 8.6838C325.058 5.79678 322.367 3.44677 319.06 1.96428C317.407 1.23767 315.639 0.730489 313.814 0.45948C311.996 0.194959 310.158 0.0531306 308.315 0.035256C307.478 0.023544 306.619 0.00948 305.781 0.0048C304.793 0 303.789 0.000312 302.8 0.000312Z" fill="#A6A6A6"/>
<path d="M23.2179 93.9C22.3802 93.9 21.5628 93.8906 20.7317 93.8743C19.01 93.8547 17.2923 93.7239 15.5927 93.4828C14.008 93.2446 12.4728 92.8014 11.0377 92.1679C9.61589 91.5396 8.31904 90.7158 7.19688 89.728C6.05848 88.7519 5.11071 87.6198 4.39113 86.3765C3.66362 85.1251 3.16014 83.7837 2.89823 82.3992C2.61538 80.9114 2.46236 79.4071 2.44046 77.8992C2.42303 77.393 2.40021 75.7077 2.40021 75.7077V20.2664C2.40021 20.2664 2.42451 18.607 2.4406 18.1195C2.46156 16.6139 2.6137 15.1119 2.8957 13.6265C3.15809 12.2382 3.66196 10.893 4.38987 9.63749C5.1068 8.39504 6.04931 7.26204 7.18086 6.28241C8.31113 5.29347 9.61212 4.46543 11.0364 3.82848C12.4681 3.197 14.0004 2.75693 15.582 2.52302C17.2871 2.27958 19.0108 2.14797 20.7384 2.12928L23.2192 2.09998H305.767L308.278 2.13046C309.99 2.14821 311.698 2.27866 313.387 2.52067C314.985 2.75752 316.533 3.20065 317.981 3.83551C320.834 5.11914 323.156 7.14997 324.621 9.64334C325.337 10.8902 325.833 12.2244 326.092 13.6008C326.378 15.0984 326.537 16.6121 326.57 18.1301C326.578 18.8097 326.578 19.5398 326.578 20.2664C326.6 21.1664 326.6 22.023 326.6 22.8867V73.1155C326.6 73.9874 326.6 74.8382 326.578 75.696C326.578 76.4765 326.578 77.1914 326.567 77.9273C326.535 79.4181 326.378 80.9048 326.097 82.3757C325.841 83.7702 325.34 85.122 324.613 86.3836C323.888 87.6135 322.946 88.7358 321.821 89.7093C320.697 90.7024 319.398 91.531 317.973 92.1633C316.529 92.8017 314.983 93.2465 313.387 93.4828C311.688 93.7252 309.97 93.856 308.248 93.8743C307.443 93.8906 306.6 93.9 305.781 93.9L302.8 93.9048L23.2179 93.9Z" fill="black"/>
<path d="M68.0987 48.7216C68.1282 46.7184 68.7378 44.7543 69.8706 43.012C71.0034 41.2697 72.6226 39.8058 74.5777 38.7566C73.3357 37.2082 71.6972 35.934 69.7924 35.0351C67.8876 34.1361 65.7689 33.6373 63.6045 33.5782C58.9877 33.1552 54.5119 35.9898 52.1592 35.9898C49.761 35.9898 46.1387 33.6202 42.2381 33.6903C39.7151 33.7614 37.2562 34.4019 35.1011 35.5492C32.9459 36.6965 31.168 38.3116 29.9405 40.2371C24.6232 48.2733 28.5894 60.0839 33.6829 66.5797C36.2313 69.7606 39.2096 73.3137 43.1067 73.1877C46.9202 73.0496 48.3445 71.0649 52.9478 71.0649C57.5083 71.0649 58.8446 73.1876 62.8207 73.1075C66.9128 73.0496 69.491 69.9126 71.95 66.7016C73.781 64.4351 75.19 61.9302 76.1247 59.2796C73.7473 58.4018 71.7185 56.9326 70.2912 55.0551C68.864 53.1776 68.1014 50.9749 68.0987 48.7216Z" fill="white"/>
<path d="M60.5884 29.3061C62.8196 26.968 63.9188 23.9627 63.6527 20.9286C60.2439 21.2411 57.0952 22.6633 54.8339 24.9117C53.7282 26.01 52.8814 27.2879 52.3419 28.6721C51.8023 30.0564 51.5806 31.5199 51.6894 32.979C53.3944 32.9943 55.0811 32.6717 56.6226 32.0355C58.164 31.3993 59.52 30.4661 60.5884 29.3061Z" fill="white"/>
<path d="M116.304 65.135H103.29L100.165 73.1905H94.6531L106.98 43.3873H112.707L125.033 73.1905H119.427L116.304 65.135ZM104.638 61.4179H114.954L109.869 48.3444H109.726L104.638 61.4179Z" fill="white"/>
<path d="M151.654 62.3272C151.654 69.0796 147.514 73.4178 141.266 73.4178C139.683 73.4901 138.109 73.1719 136.724 72.4995C135.339 71.8272 134.199 70.828 133.434 69.6162H133.316V80.3787H128.206V51.4616H133.152V55.0756H133.246C134.046 53.8697 135.206 52.8757 136.601 52.1992C137.997 51.5228 139.577 51.1893 141.172 51.2342C147.49 51.2343 151.654 55.5936 151.654 62.3272ZM146.402 62.3272C146.402 57.928 143.798 55.0358 139.824 55.0358C135.92 55.0358 133.294 57.9889 133.294 62.3272C133.294 66.7054 135.92 69.6374 139.824 69.6374C143.798 69.6374 146.402 66.7663 146.402 62.3272Z" fill="white"/>
<path d="M179.051 62.3272C179.051 69.0796 174.911 73.4178 168.663 73.4178C167.08 73.4901 165.506 73.1718 164.121 72.4995C162.736 71.8272 161.596 70.8279 160.831 69.6162H160.713V80.3787H155.603V51.4616H160.549V55.0756H160.643C161.443 53.8697 162.602 52.8757 163.998 52.1992C165.394 51.5228 166.973 51.1893 168.569 51.2342C174.887 51.2342 179.051 55.5936 179.051 62.3272ZM173.799 62.3272C173.799 57.928 171.195 55.0358 167.221 55.0358C163.317 55.0358 160.691 57.9889 160.691 62.3272C160.691 66.7053 163.317 69.6374 167.221 69.6374C171.195 69.6374 173.799 66.7663 173.799 62.3272Z" fill="white"/>
<path d="M197.158 64.8866C197.537 67.8421 200.826 69.7826 205.32 69.7826C209.627 69.7826 212.725 67.842 212.725 65.1771C212.725 62.8638 210.857 61.4787 206.432 60.5295L202.007 59.599C195.738 58.2771 192.827 55.7177 192.827 51.5646C192.827 46.4224 197.961 42.8904 205.251 42.8904C212.465 42.8904 217.411 46.4224 217.577 51.5646H212.419C212.11 48.5904 209.294 46.7951 205.178 46.7951C201.062 46.7951 198.246 48.6115 198.246 51.2552C198.246 53.3623 200.044 54.6021 204.445 55.5512L208.207 56.3575C215.212 57.8036 218.122 60.2599 218.122 64.6192C218.122 70.195 213.034 73.6872 204.942 73.6872C197.37 73.6872 192.258 70.277 191.928 64.8864L197.158 64.8866Z" fill="white"/>
<path d="M229.149 46.3195V51.4616H233.883V54.9937H229.149V66.9726C229.149 68.8335 230.097 69.7007 232.178 69.7007C232.74 69.6922 233.301 69.6577 233.858 69.5975V73.1084C232.923 73.261 231.972 73.3301 231.02 73.3147C225.981 73.3147 224.015 71.6623 224.015 67.4483V54.9937H220.396V51.4616H224.015V46.3195H229.149Z" fill="white"/>
<path d="M236.624 62.3273C236.624 55.4906 241.237 51.1945 248.43 51.1945C255.647 51.1945 260.238 55.4905 260.238 62.3273C260.238 69.1827 255.671 73.4601 248.43 73.4601C241.191 73.4601 236.624 69.1827 236.624 62.3273ZM255.032 62.3273C255.032 57.6374 252.57 54.8695 248.43 54.8695C244.289 54.8695 241.83 57.6585 241.83 62.3273C241.83 67.0358 244.289 69.7827 248.43 69.7827C252.57 69.7827 255.032 67.0358 255.032 62.3273Z" fill="white"/>
<path d="M264.45 51.4616H269.324V55.16H269.442C269.771 54.0049 270.547 52.9841 271.637 52.2692C272.727 51.5543 274.066 51.1888 275.429 51.2342C276.018 51.2325 276.605 51.2883 277.18 51.4007V55.5725C276.436 55.3743 275.661 55.2832 274.884 55.303C274.142 55.2767 273.402 55.391 272.715 55.6379C272.028 55.8848 271.41 56.2586 270.905 56.7335C270.399 57.2085 270.017 57.7733 269.785 58.3893C269.552 59.0053 269.476 59.6579 269.56 60.3022V73.1905H264.45L264.45 51.4616Z" fill="white"/>
<path d="M300.737 66.8085C300.05 70.753 295.649 73.4601 290.019 73.4601C282.778 73.4601 278.283 69.2249 278.283 62.4304C278.283 55.6148 282.802 51.1945 289.804 51.1945C296.691 51.1945 301.022 55.3241 301.022 61.9124V63.4406H283.441V63.7101C283.36 64.5098 283.474 65.3154 283.777 66.0734C284.08 66.8314 284.564 67.5245 285.198 68.1066C285.831 68.6887 286.599 69.1465 287.451 69.4497C288.302 69.7528 289.218 69.8943 290.137 69.8648C291.345 69.9635 292.556 69.7194 293.592 69.1687C294.628 68.6181 295.432 67.7903 295.886 66.8085L300.737 66.8085ZM283.465 60.3234H295.91C295.956 59.6043 295.831 58.8848 295.543 58.2099C295.255 57.535 294.811 56.9193 294.237 56.4015C293.664 55.8836 292.974 55.4748 292.211 55.2007C291.448 54.9266 290.629 54.7931 289.804 54.8085C288.972 54.8042 288.147 54.9437 287.377 55.2191C286.607 55.4945 285.908 55.9003 285.318 56.413C284.729 56.9257 284.262 57.5352 283.944 58.2064C283.626 58.8776 283.463 59.597 283.465 60.3234Z" fill="white"/>
<path d="M103.998 20.9544C105.069 20.8873 106.144 21.0285 107.145 21.368C108.146 21.7074 109.048 22.2366 109.787 22.9173C110.525 23.598 111.082 24.4132 111.415 25.3043C111.749 26.1953 111.852 27.1399 111.717 28.07C111.717 32.645 108.885 35.2748 103.998 35.2748H98.0723V20.9544H103.998ZM100.62 33.2496H103.713C104.479 33.2895 105.245 33.1799 105.956 32.9289C106.666 32.6778 107.304 32.2915 107.822 31.7982C108.341 31.3048 108.726 30.7168 108.951 30.0769C109.176 29.437 109.235 28.7614 109.123 28.0992C109.227 27.4396 109.162 26.7681 108.934 26.1329C108.705 25.4977 108.319 24.9145 107.802 24.4251C107.285 23.9356 106.65 23.5521 105.943 23.3019C105.236 23.0518 104.475 22.9412 103.713 22.9781H100.62V33.2496Z" fill="white"/>
<path d="M114.595 29.8663C114.518 29.1561 114.611 28.4396 114.869 27.7626C115.127 27.0856 115.544 26.4632 116.094 25.9353C116.643 25.4073 117.313 24.9855 118.061 24.6968C118.808 24.4081 119.616 24.259 120.434 24.259C121.251 24.259 122.059 24.4081 122.807 24.6968C123.554 24.9855 124.224 25.4073 124.774 25.9353C125.324 26.4632 125.741 27.0856 125.999 27.7626C126.257 28.4396 126.35 29.1561 126.272 29.8663C126.351 30.5773 126.259 31.2948 126.002 31.9729C125.745 32.6509 125.328 33.2745 124.778 33.8035C124.228 34.3325 123.558 34.7552 122.809 35.0445C122.061 35.3338 121.252 35.4832 120.434 35.4832C119.615 35.4832 118.806 35.3338 118.058 35.0445C117.31 34.7552 116.639 34.3325 116.089 33.8035C115.54 33.2745 115.123 32.6509 114.865 31.9729C114.608 31.2948 114.516 30.5773 114.595 29.8663ZM123.759 29.8663C123.759 27.5238 122.553 26.1539 120.438 26.1539C118.314 26.1539 117.119 27.5238 117.119 29.8664C117.119 32.2277 118.314 33.5871 120.438 33.5871C122.554 33.587 123.759 32.2183 123.759 29.8663Z" fill="white"/>
<path d="M141.794 35.2746H139.259L136.7 27.3152H136.507L133.959 35.2746H131.449L128.036 24.4675H130.514L132.732 32.7139H132.915L135.46 24.4675H137.804L140.349 32.7139H140.542L142.749 24.4675H145.193L141.794 35.2746Z" fill="white"/>
<path d="M148.063 24.4675H150.415V26.1843H150.598C150.907 25.5677 151.43 25.0508 152.092 24.7057C152.754 24.3606 153.523 24.2044 154.292 24.2589C154.894 24.2194 155.499 24.2987 156.062 24.4909C156.624 24.6831 157.13 24.9834 157.542 25.3694C157.953 25.7554 158.26 26.2173 158.439 26.7209C158.618 27.2245 158.666 27.7568 158.577 28.2784V35.2744H156.134V28.814C156.134 27.0773 155.269 26.2136 153.462 26.2136C153.053 26.197 152.645 26.2578 152.265 26.3918C151.886 26.5258 151.544 26.7298 151.263 26.9899C150.982 27.2501 150.769 27.5601 150.639 27.8988C150.508 28.2375 150.463 28.5969 150.506 28.9523V35.2746H148.063L148.063 24.4675Z" fill="white"/>
<path d="M162.47 20.2488H164.913V35.2746H162.47V20.2488Z" fill="white"/>
<path d="M168.31 29.8664C168.232 29.1562 168.325 28.4396 168.583 27.7626C168.841 27.0856 169.259 26.4631 169.809 25.9352C170.358 25.4072 171.028 24.9854 171.776 24.6967C172.523 24.408 173.332 24.2589 174.149 24.2589C174.966 24.2589 175.775 24.408 176.522 24.6967C177.27 24.9854 177.94 25.4072 178.489 25.9352C179.039 26.4631 179.457 27.0856 179.715 27.7626C179.973 28.4396 180.066 29.1562 179.988 29.8664C180.067 30.5774 179.975 31.2949 179.718 31.973C179.46 32.6511 179.043 33.2746 178.493 33.8036C177.944 34.3326 177.273 34.7553 176.525 35.0445C175.777 35.3338 174.967 35.4832 174.149 35.4832C173.331 35.4832 172.521 35.3338 171.773 35.0445C171.025 34.7553 170.354 34.3326 169.805 33.8036C169.255 33.2746 168.838 32.6511 168.58 31.973C168.323 31.2949 168.231 30.5774 168.31 29.8664ZM177.474 29.8664C177.474 27.5239 176.268 26.1539 174.152 26.1539C172.029 26.1539 170.834 27.5239 170.834 29.8664C170.834 32.2278 172.029 33.5871 174.152 33.5871C176.268 33.5871 177.474 32.2184 177.474 29.8664Z" fill="white"/>
<path d="M182.56 32.2184C182.56 30.2731 184.219 29.1516 187.165 28.9922L190.518 28.8235V27.8907C190.518 26.7493 189.654 26.1047 187.984 26.1047C186.62 26.1047 185.675 26.5418 185.404 27.3059H183.038C183.288 25.4496 185.288 24.259 188.096 24.259C191.2 24.259 192.951 25.6078 192.951 27.8907V35.2746H190.599V33.7559H190.406C190.013 34.3007 189.462 34.7448 188.809 35.0429C188.156 35.341 187.423 35.4824 186.687 35.4527C186.167 35.4999 185.642 35.4515 185.145 35.3106C184.648 35.1697 184.19 34.9395 183.801 34.6348C183.413 34.3301 183.101 33.9576 182.888 33.5414C182.674 33.1252 182.562 32.6745 182.56 32.2184ZM190.518 31.2949V30.3914L187.495 30.5602C185.79 30.6598 185.017 31.166 185.017 32.1188C185.017 33.0914 185.983 33.6574 187.313 33.6574C187.702 33.6918 188.095 33.6575 188.469 33.5565C188.843 33.4555 189.19 33.2898 189.489 33.0694C189.788 32.849 190.034 32.5783 190.21 32.2735C190.387 31.9686 190.492 31.6359 190.518 31.2949Z" fill="white"/>
<path d="M196.162 29.8664C196.162 26.4516 198.173 24.2883 201.301 24.2883C202.075 24.2571 202.843 24.4189 203.515 24.7547C204.187 25.0904 204.736 25.5863 205.097 26.1843H205.28V20.2488H207.723V35.2746H205.382V33.5671H205.189C204.799 34.1611 204.231 34.6508 203.546 34.9831C202.861 35.3155 202.084 35.4779 201.301 35.4527C198.152 35.4528 196.162 33.2894 196.162 29.8664ZM198.686 29.8664C198.686 32.1586 199.924 33.5379 201.994 33.5379C204.053 33.5379 205.326 32.1387 205.326 29.8758C205.326 27.6234 204.04 26.2043 201.994 26.2043C199.937 26.2043 198.686 27.5929 198.686 29.8664Z" fill="white"/>
<path d="M217.832 29.8663C217.754 29.1561 217.847 28.4396 218.105 27.7626C218.363 27.0856 218.781 26.4632 219.33 25.9353C219.88 25.4073 220.55 24.9855 221.297 24.6968C222.045 24.4081 222.853 24.259 223.67 24.259C224.488 24.259 225.296 24.4081 226.043 24.6968C226.791 24.9855 227.461 25.4073 228.011 25.9353C228.56 26.4632 228.978 27.0856 229.236 27.7626C229.494 28.4396 229.587 29.1561 229.509 29.8663C229.588 30.5773 229.496 31.2948 229.239 31.9729C228.982 32.6509 228.565 33.2745 228.015 33.8035C227.465 34.3325 226.794 34.7552 226.046 35.0445C225.298 35.3338 224.489 35.4832 223.67 35.4832C222.852 35.4832 222.043 35.3338 221.295 35.0445C220.547 34.7552 219.876 34.3325 219.326 33.8035C218.776 33.2745 218.359 32.6509 218.102 31.9729C217.845 31.2948 217.753 30.5773 217.832 29.8663ZM226.996 29.8663C226.996 27.5238 225.79 26.1539 223.674 26.1539C221.551 26.1539 220.356 27.5238 220.356 29.8664C220.356 32.2277 221.551 33.5871 223.674 33.5871C225.79 33.587 226.996 32.2183 226.996 29.8663Z" fill="white"/>
<path d="M232.787 24.4675H235.139V26.1843H235.322C235.631 25.5677 236.154 25.0508 236.816 24.7057C237.478 24.3606 238.247 24.2044 239.016 24.2589C239.619 24.2194 240.223 24.2987 240.786 24.4909C241.348 24.6831 241.854 24.9834 242.266 25.3694C242.677 25.7554 242.984 26.2173 243.163 26.7209C243.343 27.2245 243.39 27.7568 243.301 28.2784V35.2744H240.858V28.814C240.858 27.0773 239.993 26.2136 238.187 26.2136C237.778 26.197 237.369 26.2578 236.99 26.3918C236.61 26.5258 236.268 26.7298 235.987 26.9899C235.707 27.2501 235.494 27.5601 235.363 27.8988C235.232 28.2375 235.187 28.5969 235.23 28.9523V35.2746H232.787V24.4675Z" fill="white"/>
<path d="M257.107 21.777V24.5168H259.789V26.3133H257.107V31.8703C257.107 33.0024 257.641 33.4981 258.858 33.4981C259.169 33.4972 259.48 33.4808 259.789 33.4488V35.2254C259.351 35.2939 258.906 35.3304 258.46 35.3344C255.743 35.3344 254.661 34.5 254.661 32.4164V26.3132H252.696V24.5167H254.661V21.777H257.107Z" fill="white"/>
<path d="M263.127 20.2488H265.549V26.2043H265.742C266.067 25.5819 266.603 25.0621 267.279 24.7156C267.954 24.3692 268.736 24.213 269.517 24.2683C270.116 24.2399 270.715 24.3272 271.271 24.5241C271.827 24.721 272.327 25.0226 272.734 25.4074C273.141 25.7922 273.446 26.2508 273.627 26.7503C273.808 27.2498 273.86 27.778 273.78 28.2972V35.2746H271.335V28.8234C271.335 27.0972 270.414 26.223 268.687 26.223C268.267 26.1929 267.845 26.2433 267.45 26.3706C267.054 26.498 266.696 26.6992 266.399 26.9601C266.102 27.2211 265.874 27.5355 265.731 27.8815C265.588 28.2274 265.533 28.5965 265.57 28.9628V35.2745H263.127L263.127 20.2488Z" fill="white"/>
<path d="M288.027 32.3566C287.695 33.3443 286.976 34.1987 285.995 34.7702C285.014 35.3418 283.835 35.5942 282.662 35.4832C281.847 35.502 281.036 35.3656 280.287 35.0835C279.538 34.8015 278.868 34.3804 278.324 33.8497C277.779 33.319 277.374 32.6913 277.136 32.0101C276.897 31.3289 276.832 30.6106 276.943 29.9051C276.835 29.1973 276.902 28.4775 277.139 27.7943C277.377 27.1111 277.78 26.4804 278.322 25.9451C278.863 25.4097 279.53 24.9821 280.277 24.6912C281.024 24.4003 281.834 24.2529 282.651 24.259C286.096 24.259 288.174 26.3134 288.174 29.707V30.4512H279.432V30.5707C279.394 30.9673 279.451 31.3665 279.6 31.7427C279.749 32.1189 279.986 32.4638 280.296 32.7553C280.607 33.0468 280.984 33.2784 281.403 33.4354C281.822 33.5923 282.273 33.6711 282.729 33.6667C283.314 33.728 283.906 33.6361 284.43 33.4028C284.955 33.1695 285.388 32.8053 285.675 32.3565L288.027 32.3566ZM279.432 28.8738H285.685C285.716 28.5111 285.66 28.1468 285.52 27.8043C285.38 27.4617 285.159 27.1486 284.872 26.8849C284.585 26.6213 284.238 26.4129 283.853 26.2733C283.468 26.1337 283.055 26.0659 282.638 26.0742C282.215 26.0696 281.796 26.1388 281.405 26.2779C281.013 26.417 280.658 26.623 280.359 26.8839C280.06 27.1449 279.824 27.4553 279.665 27.7971C279.506 28.1388 279.427 28.5049 279.432 28.8738Z" fill="white"/>
</g>
<rect x="0.5" y="0.5" width="328" height="95" rx="15.5" stroke="white"/>
<defs>
<clipPath id="clip0_2018_2">
<rect width="329" height="96" rx="16" fill="white"/>
</clipPath>
</defs>
</svg>
