<svg width="329" height="96" viewBox="0 0 329 96" fill="none" xmlns="http://www.w3.org/2000/svg">
<rect x="0.5" y="0.5" width="328" height="95" rx="15.5" fill="black" stroke="white"/>
<mask id="path-2-outside-1_2010_312" maskUnits="userSpaceOnUse" x="100" y="22" width="202" height="64" fill="black">
<rect fill="white" x="100" y="22" width="202" height="64"/>
<path d="M101.636 71V24.4545H129.545V29.4545H107.273V45.1818H127.455V50.1818H107.273V71H101.636ZM144.872 71V36.0909H150.235V71H144.872ZM147.599 30.2727C146.553 30.2727 145.652 29.9167 144.894 29.2045C144.152 28.4924 143.781 27.6364 143.781 26.6364C143.781 25.6364 144.152 24.7803 144.894 24.0682C145.652 23.3561 146.553 23 147.599 23C148.644 23 149.538 23.3561 150.281 24.0682C151.038 24.7803 151.417 25.6364 151.417 26.6364C151.417 27.6364 151.038 28.4924 150.281 29.2045C149.538 29.9167 148.644 30.2727 147.599 30.2727ZM180.55 84.8182C177.959 84.8182 175.732 84.4848 173.868 83.8182C172.005 83.1667 170.452 82.303 169.209 81.2273C167.982 80.1667 167.005 79.0303 166.277 77.8182L170.55 74.8182C171.035 75.4545 171.648 76.1818 172.391 77C173.133 77.8333 174.148 78.553 175.436 79.1591C176.739 79.7803 178.444 80.0909 180.55 80.0909C183.368 80.0909 185.694 79.4091 187.527 78.0455C189.361 76.6818 190.277 74.5455 190.277 71.6364V64.5455H189.823C189.429 65.1818 188.868 65.9697 188.141 66.9091C187.429 67.8333 186.398 68.6591 185.05 69.3864C183.717 70.0985 181.914 70.4545 179.641 70.4545C176.823 70.4545 174.292 69.7879 172.05 68.4545C169.823 67.1212 168.058 65.1818 166.755 62.6364C165.467 60.0909 164.823 57 164.823 53.3636C164.823 49.7879 165.452 46.6742 166.709 44.0227C167.967 41.3561 169.717 39.2955 171.959 37.8409C174.202 36.3712 176.792 35.6364 179.732 35.6364C182.005 35.6364 183.808 36.0152 185.141 36.7727C186.489 37.5152 187.52 38.3636 188.232 39.3182C188.959 40.2576 189.52 41.0303 189.914 41.6364H190.459V36.0909H195.641V72C195.641 75 194.959 77.4394 193.595 79.3182C192.247 81.2121 190.429 82.5985 188.141 83.4773C185.868 84.3712 183.338 84.8182 180.55 84.8182ZM180.368 65.6364C182.52 65.6364 184.338 65.1439 185.823 64.1591C187.308 63.1742 188.436 61.7576 189.209 59.9091C189.982 58.0606 190.368 55.8485 190.368 53.2727C190.368 50.7576 189.989 48.5379 189.232 46.6136C188.474 44.6894 187.353 43.1818 185.868 42.0909C184.383 41 182.55 40.4545 180.368 40.4545C178.095 40.4545 176.202 41.0303 174.686 42.1818C173.186 43.3333 172.058 44.8788 171.3 46.8182C170.558 48.7576 170.186 50.9091 170.186 53.2727C170.186 55.697 170.565 57.8409 171.323 59.7045C172.095 61.553 173.232 63.0076 174.732 64.0682C176.247 65.1136 178.126 65.6364 180.368 65.6364ZM211.859 71V36.0909H217.041V41.5455H217.495C218.223 39.6818 219.397 38.2348 221.018 37.2045C222.639 36.1591 224.586 35.6364 226.859 35.6364C229.162 35.6364 231.079 36.1591 232.609 37.2045C234.155 38.2348 235.359 39.6818 236.223 41.5455H236.586C237.48 39.7424 238.821 38.3106 240.609 37.25C242.397 36.1742 244.541 35.6364 247.041 35.6364C250.162 35.6364 252.715 36.6136 254.7 38.5682C256.685 40.5076 257.677 43.5303 257.677 47.6364V71H252.314V47.6364C252.314 45.0606 251.609 43.2197 250.2 42.1136C248.791 41.0076 247.132 40.4545 245.223 40.4545C242.768 40.4545 240.867 41.197 239.518 42.6818C238.17 44.1515 237.495 46.0152 237.495 48.2727V71H232.041V47.0909C232.041 45.1061 231.397 43.5076 230.109 42.2955C228.821 41.0682 227.162 40.4545 225.132 40.4545C223.738 40.4545 222.435 40.8258 221.223 41.5682C220.026 42.3106 219.056 43.3409 218.314 44.6591C217.586 45.9621 217.223 47.4697 217.223 49.1818V71H211.859ZM284.157 71.8182C281.945 71.8182 279.937 71.4015 278.134 70.5682C276.331 69.7197 274.899 68.5 273.839 66.9091C272.778 65.303 272.248 63.3636 272.248 61.0909C272.248 59.0909 272.642 57.4697 273.43 56.2273C274.217 54.9697 275.27 53.9848 276.589 53.2727C277.907 52.5606 279.361 52.0303 280.952 51.6818C282.558 51.3182 284.172 51.0303 285.793 50.8182C287.914 50.5455 289.634 50.3409 290.952 50.2045C292.286 50.053 293.255 49.803 293.861 49.4545C294.483 49.1061 294.793 48.5 294.793 47.6364V47.4545C294.793 45.2121 294.18 43.4697 292.952 42.2273C291.74 40.9848 289.899 40.3636 287.43 40.3636C284.869 40.3636 282.861 40.9242 281.407 42.0455C279.952 43.1667 278.93 44.3636 278.339 45.6364L273.248 43.8182C274.157 41.697 275.369 40.0455 276.884 38.8636C278.414 37.6667 280.081 36.8333 281.884 36.3636C283.702 35.8788 285.49 35.6364 287.248 35.6364C288.369 35.6364 289.657 35.7727 291.111 36.0455C292.581 36.303 293.998 36.8409 295.361 37.6591C296.74 38.4773 297.884 39.7121 298.793 41.3636C299.702 43.0152 300.157 45.2273 300.157 48V71H294.793V66.2727H294.52C294.157 67.0303 293.551 67.8409 292.702 68.7045C291.854 69.5682 290.725 70.303 289.316 70.9091C287.907 71.5152 286.187 71.8182 284.157 71.8182ZM284.975 67C287.096 67 288.884 66.5833 290.339 65.75C291.808 64.9167 292.914 63.8409 293.657 62.5227C294.414 61.2045 294.793 59.8182 294.793 58.3636V53.4545C294.566 53.7273 294.066 53.9773 293.293 54.2045C292.536 54.4167 291.657 54.6061 290.657 54.7727C289.672 54.9242 288.71 55.0606 287.77 55.1818C286.846 55.2879 286.096 55.3788 285.52 55.4545C284.127 55.6364 282.823 55.9318 281.611 56.3409C280.414 56.7348 279.445 57.3333 278.702 58.1364C277.975 58.9242 277.611 60 277.611 61.3636C277.611 63.2273 278.301 64.6364 279.68 65.5909C281.073 66.5303 282.839 67 284.975 67Z"/>
</mask>
<path d="M101.636 71V24.4545H129.545V29.4545H107.273V45.1818H127.455V50.1818H107.273V71H101.636ZM144.872 71V36.0909H150.235V71H144.872ZM147.599 30.2727C146.553 30.2727 145.652 29.9167 144.894 29.2045C144.152 28.4924 143.781 27.6364 143.781 26.6364C143.781 25.6364 144.152 24.7803 144.894 24.0682C145.652 23.3561 146.553 23 147.599 23C148.644 23 149.538 23.3561 150.281 24.0682C151.038 24.7803 151.417 25.6364 151.417 26.6364C151.417 27.6364 151.038 28.4924 150.281 29.2045C149.538 29.9167 148.644 30.2727 147.599 30.2727ZM180.55 84.8182C177.959 84.8182 175.732 84.4848 173.868 83.8182C172.005 83.1667 170.452 82.303 169.209 81.2273C167.982 80.1667 167.005 79.0303 166.277 77.8182L170.55 74.8182C171.035 75.4545 171.648 76.1818 172.391 77C173.133 77.8333 174.148 78.553 175.436 79.1591C176.739 79.7803 178.444 80.0909 180.55 80.0909C183.368 80.0909 185.694 79.4091 187.527 78.0455C189.361 76.6818 190.277 74.5455 190.277 71.6364V64.5455H189.823C189.429 65.1818 188.868 65.9697 188.141 66.9091C187.429 67.8333 186.398 68.6591 185.05 69.3864C183.717 70.0985 181.914 70.4545 179.641 70.4545C176.823 70.4545 174.292 69.7879 172.05 68.4545C169.823 67.1212 168.058 65.1818 166.755 62.6364C165.467 60.0909 164.823 57 164.823 53.3636C164.823 49.7879 165.452 46.6742 166.709 44.0227C167.967 41.3561 169.717 39.2955 171.959 37.8409C174.202 36.3712 176.792 35.6364 179.732 35.6364C182.005 35.6364 183.808 36.0152 185.141 36.7727C186.489 37.5152 187.52 38.3636 188.232 39.3182C188.959 40.2576 189.52 41.0303 189.914 41.6364H190.459V36.0909H195.641V72C195.641 75 194.959 77.4394 193.595 79.3182C192.247 81.2121 190.429 82.5985 188.141 83.4773C185.868 84.3712 183.338 84.8182 180.55 84.8182ZM180.368 65.6364C182.52 65.6364 184.338 65.1439 185.823 64.1591C187.308 63.1742 188.436 61.7576 189.209 59.9091C189.982 58.0606 190.368 55.8485 190.368 53.2727C190.368 50.7576 189.989 48.5379 189.232 46.6136C188.474 44.6894 187.353 43.1818 185.868 42.0909C184.383 41 182.55 40.4545 180.368 40.4545C178.095 40.4545 176.202 41.0303 174.686 42.1818C173.186 43.3333 172.058 44.8788 171.3 46.8182C170.558 48.7576 170.186 50.9091 170.186 53.2727C170.186 55.697 170.565 57.8409 171.323 59.7045C172.095 61.553 173.232 63.0076 174.732 64.0682C176.247 65.1136 178.126 65.6364 180.368 65.6364ZM211.859 71V36.0909H217.041V41.5455H217.495C218.223 39.6818 219.397 38.2348 221.018 37.2045C222.639 36.1591 224.586 35.6364 226.859 35.6364C229.162 35.6364 231.079 36.1591 232.609 37.2045C234.155 38.2348 235.359 39.6818 236.223 41.5455H236.586C237.48 39.7424 238.821 38.3106 240.609 37.25C242.397 36.1742 244.541 35.6364 247.041 35.6364C250.162 35.6364 252.715 36.6136 254.7 38.5682C256.685 40.5076 257.677 43.5303 257.677 47.6364V71H252.314V47.6364C252.314 45.0606 251.609 43.2197 250.2 42.1136C248.791 41.0076 247.132 40.4545 245.223 40.4545C242.768 40.4545 240.867 41.197 239.518 42.6818C238.17 44.1515 237.495 46.0152 237.495 48.2727V71H232.041V47.0909C232.041 45.1061 231.397 43.5076 230.109 42.2955C228.821 41.0682 227.162 40.4545 225.132 40.4545C223.738 40.4545 222.435 40.8258 221.223 41.5682C220.026 42.3106 219.056 43.3409 218.314 44.6591C217.586 45.9621 217.223 47.4697 217.223 49.1818V71H211.859ZM284.157 71.8182C281.945 71.8182 279.937 71.4015 278.134 70.5682C276.331 69.7197 274.899 68.5 273.839 66.9091C272.778 65.303 272.248 63.3636 272.248 61.0909C272.248 59.0909 272.642 57.4697 273.43 56.2273C274.217 54.9697 275.27 53.9848 276.589 53.2727C277.907 52.5606 279.361 52.0303 280.952 51.6818C282.558 51.3182 284.172 51.0303 285.793 50.8182C287.914 50.5455 289.634 50.3409 290.952 50.2045C292.286 50.053 293.255 49.803 293.861 49.4545C294.483 49.1061 294.793 48.5 294.793 47.6364V47.4545C294.793 45.2121 294.18 43.4697 292.952 42.2273C291.74 40.9848 289.899 40.3636 287.43 40.3636C284.869 40.3636 282.861 40.9242 281.407 42.0455C279.952 43.1667 278.93 44.3636 278.339 45.6364L273.248 43.8182C274.157 41.697 275.369 40.0455 276.884 38.8636C278.414 37.6667 280.081 36.8333 281.884 36.3636C283.702 35.8788 285.49 35.6364 287.248 35.6364C288.369 35.6364 289.657 35.7727 291.111 36.0455C292.581 36.303 293.998 36.8409 295.361 37.6591C296.74 38.4773 297.884 39.7121 298.793 41.3636C299.702 43.0152 300.157 45.2273 300.157 48V71H294.793V66.2727H294.52C294.157 67.0303 293.551 67.8409 292.702 68.7045C291.854 69.5682 290.725 70.303 289.316 70.9091C287.907 71.5152 286.187 71.8182 284.157 71.8182ZM284.975 67C287.096 67 288.884 66.5833 290.339 65.75C291.808 64.9167 292.914 63.8409 293.657 62.5227C294.414 61.2045 294.793 59.8182 294.793 58.3636V53.4545C294.566 53.7273 294.066 53.9773 293.293 54.2045C292.536 54.4167 291.657 54.6061 290.657 54.7727C289.672 54.9242 288.71 55.0606 287.77 55.1818C286.846 55.2879 286.096 55.3788 285.52 55.4545C284.127 55.6364 282.823 55.9318 281.611 56.3409C280.414 56.7348 279.445 57.3333 278.702 58.1364C277.975 58.9242 277.611 60 277.611 61.3636C277.611 63.2273 278.301 64.6364 279.68 65.5909C281.073 66.5303 282.839 67 284.975 67Z" fill="white"/>
<path d="M101.636 71H100.636V72H101.636V71ZM101.636 24.4545V23.4545H100.636V24.4545H101.636ZM129.545 24.4545H130.545V23.4545H129.545V24.4545ZM129.545 29.4545V30.4545H130.545V29.4545H129.545ZM107.273 29.4545V28.4545H106.273V29.4545H107.273ZM107.273 45.1818H106.273V46.1818H107.273V45.1818ZM127.455 45.1818H128.455V44.1818H127.455V45.1818ZM127.455 50.1818V51.1818H128.455V50.1818H127.455ZM107.273 50.1818V49.1818H106.273V50.1818H107.273ZM107.273 71V72H108.273V71H107.273ZM101.636 71H102.636V24.4545H101.636H100.636V71H101.636ZM101.636 24.4545V25.4545H129.545V24.4545V23.4545H101.636V24.4545ZM129.545 24.4545H128.545V29.4545H129.545H130.545V24.4545H129.545ZM129.545 29.4545V28.4545H107.273V29.4545V30.4545H129.545V29.4545ZM107.273 29.4545H106.273V45.1818H107.273H108.273V29.4545H107.273ZM107.273 45.1818V46.1818H127.455V45.1818V44.1818H107.273V45.1818ZM127.455 45.1818H126.455V50.1818H127.455H128.455V45.1818H127.455ZM127.455 50.1818V49.1818H107.273V50.1818V51.1818H127.455V50.1818ZM107.273 50.1818H106.273V71H107.273H108.273V50.1818H107.273ZM107.273 71V70H101.636V71V72H107.273V71ZM144.872 71H143.872V72H144.872V71ZM144.872 36.0909V35.0909H143.872V36.0909H144.872ZM150.235 36.0909H151.235V35.0909H150.235V36.0909ZM150.235 71V72H151.235V71H150.235ZM144.894 29.2045L144.202 29.9263L144.209 29.9332L144.894 29.2045ZM144.894 24.0682L144.209 23.3395L144.202 23.3465L144.894 24.0682ZM150.281 24.0682L149.588 24.7899L149.596 24.7968L150.281 24.0682ZM150.281 29.2045L149.596 28.4759L149.588 28.4829L150.281 29.2045ZM144.872 71H145.872V36.0909H144.872H143.872V71H144.872ZM144.872 36.0909V37.0909H150.235V36.0909V35.0909H144.872V36.0909ZM150.235 36.0909H149.235V71H150.235H151.235V36.0909H150.235ZM150.235 71V70H144.872V71V72H150.235V71ZM147.599 30.2727V29.2727C146.806 29.2727 146.15 29.0126 145.579 28.4759L144.894 29.2045L144.209 29.9332C145.154 30.8207 146.3 31.2727 147.599 31.2727V30.2727ZM144.894 29.2045L145.587 28.4829C145.034 27.9532 144.781 27.3552 144.781 26.6364H143.781H142.781C142.781 27.9175 143.269 29.0316 144.202 29.9262L144.894 29.2045ZM143.781 26.6364H144.781C144.781 25.9175 145.034 25.3195 145.587 24.7899L144.894 24.0682L144.202 23.3465C143.269 24.2411 142.781 25.3552 142.781 26.6364H143.781ZM144.894 24.0682L145.579 24.7968C146.15 24.2601 146.806 24 147.599 24V23V22C146.3 22 145.154 22.452 144.209 23.3396L144.894 24.0682ZM147.599 23V24C148.391 24 149.036 24.2595 149.588 24.7899L150.281 24.0682L150.973 23.3465C150.041 22.4526 148.898 22 147.599 22V23ZM150.281 24.0682L149.596 24.7968C150.161 25.3284 150.417 25.9244 150.417 26.6364H151.417H152.417C152.417 25.3483 151.915 24.2322 150.966 23.3396L150.281 24.0682ZM151.417 26.6364H150.417C150.417 27.3483 150.161 27.9443 149.596 28.4759L150.281 29.2045L150.966 29.9332C151.915 29.0405 152.417 27.9244 152.417 26.6364H151.417ZM150.281 29.2045L149.588 28.4829C149.036 29.0132 148.391 29.2727 147.599 29.2727V30.2727V31.2727C148.898 31.2727 150.041 30.8202 150.973 29.9262L150.281 29.2045ZM173.868 83.8182L174.205 82.8766L174.198 82.8742L173.868 83.8182ZM169.209 81.2273L169.864 80.4713L169.863 80.4707L169.209 81.2273ZM166.277 77.8182L165.703 76.9998L164.941 77.5346L165.42 78.3327L166.277 77.8182ZM170.55 74.8182L171.345 74.2121L170.763 73.4471L169.975 73.9998L170.55 74.8182ZM172.391 77L173.138 76.3348L173.131 76.328L172.391 77ZM175.436 79.1591L175.867 78.2564L175.862 78.2543L175.436 79.1591ZM187.527 78.0455L188.124 78.8478L188.124 78.8478L187.527 78.0455ZM190.277 64.5455H191.277V63.5455H190.277V64.5455ZM189.823 64.5455V63.5455H189.266L188.972 64.0191L189.823 64.5455ZM188.141 66.9091L187.35 66.2969L187.349 66.2988L188.141 66.9091ZM185.05 69.3864L185.521 70.2684L185.525 70.2665L185.05 69.3864ZM172.05 68.4545L171.536 69.3126L171.539 69.3141L172.05 68.4545ZM166.755 62.6364L165.862 63.0878L165.864 63.092L166.755 62.6364ZM166.709 44.0227L167.613 44.4513L167.614 44.4493L166.709 44.0227ZM171.959 37.8409L172.503 38.6799L172.507 38.6773L171.959 37.8409ZM185.141 36.7727L184.647 37.6423L184.659 37.6487L185.141 36.7727ZM188.232 39.3182L187.43 39.9161L187.436 39.9233L187.441 39.9304L188.232 39.3182ZM189.914 41.6364L189.075 42.1814L189.371 42.6364H189.914V41.6364ZM190.459 41.6364V42.6364H191.459V41.6364H190.459ZM190.459 36.0909V35.0909H189.459V36.0909H190.459ZM195.641 36.0909H196.641V35.0909H195.641V36.0909ZM193.595 79.3182L192.786 78.7308L192.781 78.7382L193.595 79.3182ZM188.141 83.4773L187.782 82.5437L187.775 82.5467L188.141 83.4773ZM185.823 64.1591L185.27 63.3257L185.27 63.3257L185.823 64.1591ZM189.209 59.9091L190.132 60.2948L190.132 60.2948L189.209 59.9091ZM189.232 46.6136L190.162 46.2473L190.162 46.2473L189.232 46.6136ZM185.868 42.0909L185.276 42.8968L185.276 42.8968L185.868 42.0909ZM174.686 42.1818L174.081 41.3856L174.077 41.3886L174.686 42.1818ZM171.3 46.8182L170.369 46.4543L170.366 46.4607L171.3 46.8182ZM171.323 59.7045L170.396 60.0811L170.4 60.0902L171.323 59.7045ZM174.732 64.0682L174.154 64.8847L174.164 64.8913L174.732 64.0682ZM180.55 84.8182V83.8182C178.04 83.8182 175.933 83.4947 174.205 82.8766L173.868 83.8182L173.531 84.7598C175.531 85.475 177.878 85.8182 180.55 85.8182V84.8182ZM173.868 83.8182L174.198 82.8742C172.43 82.2561 170.994 81.4497 169.864 80.4713L169.209 81.2273L168.555 81.9833C169.909 83.1564 171.579 84.0772 173.538 84.7622L173.868 83.8182ZM169.209 81.2273L169.863 80.4707C168.704 79.4694 167.8 78.4125 167.135 77.3037L166.277 77.8182L165.42 78.3327C166.209 79.6481 167.259 80.8639 168.555 81.9839L169.209 81.2273ZM166.277 77.8182L166.852 78.6366L171.125 75.6366L170.55 74.8182L169.975 73.9998L165.703 76.9998L166.277 77.8182ZM170.55 74.8182L169.755 75.4242C170.262 76.0901 170.895 76.84 171.65 77.672L172.391 77L173.131 76.328C172.402 75.5237 171.808 74.819 171.345 74.2121L170.55 74.8182ZM172.391 77L171.644 77.6652C172.497 78.6228 173.633 79.4156 175.011 80.0639L175.436 79.1591L175.862 78.2543C174.664 77.6904 173.769 77.0438 173.138 76.3348L172.391 77ZM175.436 79.1591L175.006 80.0618C176.491 80.7695 178.358 81.0909 180.55 81.0909V80.0909V79.0909C178.53 79.0909 176.988 78.7911 175.867 78.2564L175.436 79.1591ZM180.55 80.0909V81.0909C183.532 81.0909 186.081 80.3673 188.124 78.8478L187.527 78.0455L186.93 77.2431C185.307 78.4509 183.204 79.0909 180.55 79.0909V80.0909ZM187.527 78.0455L188.124 78.8478C190.279 77.2451 191.277 74.7663 191.277 71.6364H190.277H189.277C189.277 74.3246 188.442 76.1186 186.93 77.2431L187.527 78.0455ZM190.277 71.6364H191.277V64.5455H190.277H189.277V71.6364H190.277ZM190.277 64.5455V63.5455H189.823V64.5455V65.5455H190.277V64.5455ZM189.823 64.5455L188.972 64.0191C188.604 64.6139 188.067 65.3711 187.35 66.2969L188.141 66.9091L188.932 67.5213C189.669 66.5683 190.253 65.7497 190.673 65.0718L189.823 64.5455ZM188.141 66.9091L187.349 66.2988C186.745 67.0828 185.837 67.8257 184.575 68.5062L185.05 69.3864L185.525 70.2665C186.96 69.4925 188.113 68.5839 188.933 67.5194L188.141 66.9091ZM185.05 69.3864L184.579 68.5043C183.445 69.1097 181.825 69.4545 179.641 69.4545V70.4545V71.4545C182.002 71.4545 183.988 71.0873 185.521 70.2684L185.05 69.3864ZM179.641 70.4545V69.4545C176.988 69.4545 174.637 68.8291 172.561 67.595L172.05 68.4545L171.539 69.3141C173.948 70.7467 176.658 71.4545 179.641 71.4545V70.4545ZM172.05 68.4545L172.564 67.5965C170.513 66.369 168.871 64.5769 167.645 62.1807L166.755 62.6364L165.864 63.092C167.244 65.7867 169.132 67.8734 171.536 69.3126L172.05 68.4545ZM166.755 62.6364L167.647 62.1849C166.447 59.8125 165.823 56.885 165.823 53.3636H164.823H163.823C163.823 57.115 164.487 60.3693 165.862 63.0878L166.755 62.6364ZM164.823 53.3636H165.823C165.823 49.9043 166.431 46.9428 167.613 44.4513L166.709 44.0227L165.806 43.5942C164.472 46.4057 163.823 49.6714 163.823 53.3636H164.823ZM166.709 44.0227L167.614 44.4493C168.8 41.933 170.433 40.0229 172.503 38.6799L171.959 37.8409L171.415 37.0019C169.001 38.568 167.133 40.7791 165.805 43.5962L166.709 44.0227ZM171.959 37.8409L172.507 38.6773C174.571 37.3246 176.968 36.6364 179.732 36.6364V35.6364V34.6364C176.617 34.6364 173.832 35.4179 171.411 37.0045L171.959 37.8409ZM179.732 35.6364V36.6364C181.909 36.6364 183.52 37.0017 184.647 37.6422L185.141 36.7727L185.635 35.9033C184.096 35.0286 182.1 34.6364 179.732 34.6364V35.6364ZM185.141 36.7727L184.659 37.6487C185.917 38.3417 186.825 39.1043 187.43 39.9161L188.232 39.3182L189.033 38.7202C188.215 37.623 187.062 36.6886 185.623 35.8967L185.141 36.7727ZM188.232 39.3182L187.441 39.9304C188.161 40.8599 188.703 41.6082 189.075 42.1814L189.914 41.6364L190.752 41.0914C190.337 40.4524 189.757 39.6552 189.023 38.706L188.232 39.3182ZM189.914 41.6364V42.6364H190.459V41.6364V40.6364H189.914V41.6364ZM190.459 41.6364H191.459V36.0909H190.459H189.459V41.6364H190.459ZM190.459 36.0909V37.0909H195.641V36.0909V35.0909H190.459V36.0909ZM195.641 36.0909H194.641V72H195.641H196.641V36.0909H195.641ZM195.641 72H194.641C194.641 74.8507 193.994 77.0667 192.786 78.7308L193.595 79.3182L194.405 79.9056C195.924 77.8121 196.641 75.1493 196.641 72H195.641ZM193.595 79.3182L192.781 78.7382C191.553 80.4631 189.897 81.7314 187.782 82.5438L188.141 83.4773L188.499 84.4108C190.96 83.4655 192.941 81.9611 194.41 79.8982L193.595 79.3182ZM188.141 83.4773L187.775 82.5467C185.634 83.3887 183.23 83.8182 180.55 83.8182V84.8182V85.8182C183.446 85.8182 186.102 85.3537 188.507 84.4079L188.141 83.4773ZM180.368 65.6364V66.6364C182.675 66.6364 184.695 66.1068 186.375 64.9924L185.823 64.1591L185.27 63.3257C183.98 64.1811 182.364 64.6364 180.368 64.6364V65.6364ZM185.823 64.1591L186.375 64.9924C188.045 63.885 189.293 62.3023 190.132 60.2948L189.209 59.9091L188.286 59.5234C187.58 61.2129 186.57 62.4635 185.27 63.3257L185.823 64.1591ZM189.209 59.9091L190.132 60.2948C190.968 58.2946 191.368 55.9447 191.368 53.2727H190.368H189.368C189.368 55.7523 188.996 57.8266 188.286 59.5234L189.209 59.9091ZM190.368 53.2727H191.368C191.368 50.6585 190.975 48.3105 190.162 46.2473L189.232 46.6136L188.301 46.98C189.004 48.7653 189.368 50.8566 189.368 53.2727H190.368ZM189.232 46.6136L190.162 46.2473C189.344 44.1697 188.115 42.5009 186.46 41.285L185.868 42.0909L185.276 42.8968C186.591 43.8627 187.604 45.2091 188.301 46.98L189.232 46.6136ZM185.868 42.0909L186.46 41.285C184.774 40.046 182.723 39.4545 180.368 39.4545V40.4545V41.4545C182.377 41.4545 183.993 41.954 185.276 42.8968L185.868 42.0909ZM180.368 40.4545V39.4545C177.921 39.4545 175.802 40.0776 174.081 41.3857L174.686 42.1818L175.291 42.978C176.601 41.983 178.27 41.4545 180.368 41.4545V40.4545ZM174.686 42.1818L174.077 41.3886C172.418 42.6622 171.186 44.3628 170.369 46.4543L171.3 46.8182L172.231 47.182C172.93 45.3948 173.954 44.0045 175.295 42.975L174.686 42.1818ZM171.3 46.8182L170.366 46.4607C169.574 48.5288 169.186 50.8036 169.186 53.2727H170.186H171.186C171.186 51.0146 171.541 48.9863 172.234 47.1757L171.3 46.8182ZM170.186 53.2727H169.186C169.186 55.8002 169.581 58.0761 170.396 60.0811L171.323 59.7045L172.249 59.328C171.549 57.6057 171.186 55.5937 171.186 53.2727H170.186ZM171.323 59.7045L170.4 60.0902C171.238 62.0956 172.487 63.706 174.154 64.8847L174.732 64.0682L175.309 63.2517C173.976 62.3092 172.953 61.0104 172.245 59.3189L171.323 59.7045ZM174.732 64.0682L174.164 64.8913C175.879 66.075 177.968 66.6364 180.368 66.6364V65.6364V64.6364C178.284 64.6364 176.614 64.1522 175.3 63.2451L174.732 64.0682ZM211.859 71H210.859V72H211.859V71ZM211.859 36.0909V35.0909H210.859V36.0909H211.859ZM217.041 36.0909H218.041V35.0909H217.041V36.0909ZM217.041 41.5455H216.041V42.5455H217.041V41.5455ZM217.495 41.5455V42.5455H218.179L218.427 41.909L217.495 41.5455ZM221.018 37.2045L221.555 38.0485L221.56 38.045L221.018 37.2045ZM232.609 37.2045L232.045 38.0303L232.054 38.0366L232.609 37.2045ZM236.223 41.5455L235.315 41.9659L235.584 42.5455H236.223V41.5455ZM236.586 41.5455V42.5455H237.207L237.482 41.9897L236.586 41.5455ZM240.609 37.25L241.119 38.1101L241.125 38.1069L240.609 37.25ZM254.7 38.5682L253.998 39.2807L254.001 39.2834L254.7 38.5682ZM257.677 71V72H258.677V71H257.677ZM252.314 71H251.314V72H252.314V71ZM250.2 42.1136L249.583 42.9002L249.583 42.9002L250.2 42.1136ZM239.518 42.6818L240.255 43.3579L240.258 43.3541L239.518 42.6818ZM237.495 71V72H238.495V71H237.495ZM232.041 71H231.041V72H232.041V71ZM230.109 42.2955L229.419 43.0194L229.424 43.0237L230.109 42.2955ZM221.223 41.5682L220.7 40.7154L220.696 40.7184L221.223 41.5682ZM218.314 44.6591L217.442 44.1683L217.44 44.1717L218.314 44.6591ZM217.223 71V72H218.223V71H217.223ZM211.859 71H212.859V36.0909H211.859H210.859V71H211.859ZM211.859 36.0909V37.0909H217.041V36.0909V35.0909H211.859V36.0909ZM217.041 36.0909H216.041V41.5455H217.041H218.041V36.0909H217.041ZM217.041 41.5455V42.5455H217.495V41.5455V40.5455H217.041V41.5455ZM217.495 41.5455L218.427 41.909C219.08 40.2347 220.121 38.9598 221.555 38.0485L221.018 37.2045L220.482 36.3606C218.673 37.5099 217.365 39.129 216.564 41.1819L217.495 41.5455ZM221.018 37.2045L221.56 38.045C222.993 37.1211 224.744 36.6364 226.859 36.6364V35.6364V34.6364C224.429 34.6364 222.286 35.1971 220.476 36.3641L221.018 37.2045ZM226.859 35.6364V36.6364C229.01 36.6364 230.717 37.1232 232.045 38.0303L232.609 37.2045L233.173 36.3788C231.44 35.195 229.314 34.6364 226.859 34.6364V35.6364ZM232.609 37.2045L232.054 38.0366C233.431 38.9542 234.521 40.2511 235.315 41.9659L236.223 41.5455L237.13 41.125C236.197 39.1125 234.878 37.5155 233.164 36.3725L232.609 37.2045ZM236.223 41.5455V42.5455H236.586V41.5455V40.5455H236.223V41.5455ZM236.586 41.5455L237.482 41.9897C238.288 40.3655 239.492 39.0756 241.119 38.1101L240.609 37.25L240.099 36.3899C238.151 37.5456 236.673 39.1194 235.69 41.1013L236.586 41.5455ZM240.609 37.25L241.125 38.1069C242.729 37.1418 244.686 36.6364 247.041 36.6364V35.6364V34.6364C244.395 34.6364 242.065 35.2067 240.094 36.3931L240.609 37.25ZM247.041 35.6364V36.6364C249.934 36.6364 252.224 37.5332 253.998 39.2807L254.7 38.5682L255.402 37.8557C253.207 35.694 250.39 34.6364 247.041 34.6364V35.6364ZM254.7 38.5682L254.001 39.2834C255.718 40.9605 256.677 43.6708 256.677 47.6364H257.677H258.677C258.677 43.3898 257.652 40.0546 255.399 37.8529L254.7 38.5682ZM257.677 47.6364H256.677V71H257.677H258.677V47.6364H257.677ZM257.677 71V70H252.314V71V72H257.677V71ZM252.314 71H253.314V47.6364H252.314H251.314V71H252.314ZM252.314 47.6364H253.314C253.314 44.8942 252.56 42.6952 250.817 41.327L250.2 42.1136L249.583 42.9002C250.658 43.7442 251.314 45.227 251.314 47.6364H252.314ZM250.2 42.1136L250.817 41.327C249.22 40.0733 247.34 39.4545 245.223 39.4545V40.4545V41.4545C246.924 41.4545 248.362 41.9419 249.583 42.9002L250.2 42.1136ZM245.223 40.4545V39.4545C242.554 39.4545 240.357 40.2704 238.778 42.0095L239.518 42.6818L240.258 43.3541C241.376 42.1236 242.982 41.4545 245.223 41.4545V40.4545ZM239.518 42.6818L238.781 42.0057C237.241 43.6845 236.495 45.8003 236.495 48.2727H237.495H238.495C238.495 46.23 239.098 44.6185 240.255 43.3579L239.518 42.6818ZM237.495 48.2727H236.495V71H237.495H238.495V48.2727H237.495ZM237.495 71V70H232.041V71V72H237.495V71ZM232.041 71H233.041V47.0909H232.041H231.041V71H232.041ZM232.041 47.0909H233.041C233.041 44.8675 232.309 42.9924 230.794 41.5673L230.109 42.2955L229.424 43.0237C230.485 44.0227 231.041 45.3446 231.041 47.0909H232.041ZM230.109 42.2955L230.799 41.5715C229.299 40.1417 227.38 39.4545 225.132 39.4545V40.4545V41.4545C226.944 41.4545 228.344 41.9946 229.419 43.0194L230.109 42.2955ZM225.132 40.4545V39.4545C223.55 39.4545 222.066 39.8787 220.7 40.7154L221.223 41.5682L221.745 42.4209C222.803 41.7728 223.926 41.4545 225.132 41.4545V40.4545ZM221.223 41.5682L220.696 40.7184C219.345 41.5561 218.261 42.7146 217.442 44.1684L218.314 44.6591L219.185 45.1498C219.851 43.9672 220.707 43.0651 221.75 42.418L221.223 41.5682ZM218.314 44.6591L217.44 44.1717C216.618 45.6445 216.223 47.3245 216.223 49.1818H217.223H218.223C218.223 47.6149 218.554 46.2798 219.187 45.1465L218.314 44.6591ZM217.223 49.1818H216.223V71H217.223H218.223V49.1818H217.223ZM217.223 71V70H211.859V71V72H217.223V71ZM278.134 70.5682L277.708 71.473L277.715 71.4759L278.134 70.5682ZM273.839 66.9091L273.004 67.4602L273.007 67.4638L273.839 66.9091ZM273.43 56.2273L274.274 56.7628L274.277 56.7582L273.43 56.2273ZM280.952 51.6818L281.166 52.6587L281.173 52.6571L280.952 51.6818ZM285.793 50.8182L285.666 49.8263L285.663 49.8266L285.793 50.8182ZM290.952 50.2045L291.055 51.1993L291.065 51.1981L290.952 50.2045ZM293.861 49.4545L293.372 48.5824L293.363 48.5876L293.861 49.4545ZM292.952 42.2273L292.236 42.9256L292.241 42.93L292.952 42.2273ZM281.407 42.0455L282.017 42.8375L282.017 42.8375L281.407 42.0455ZM278.339 45.6364L278.002 46.5781L278.861 46.8849L279.246 46.0575L278.339 45.6364ZM273.248 43.8182L272.329 43.4243L271.91 44.4021L272.911 44.7599L273.248 43.8182ZM276.884 38.8636L277.499 39.6521L277.5 39.6513L276.884 38.8636ZM281.884 36.3636L282.136 37.3314L282.142 37.3299L281.884 36.3636ZM291.111 36.0455L290.927 37.0284L290.939 37.0304L291.111 36.0455ZM295.361 37.6591L294.847 38.5166L294.851 38.5191L295.361 37.6591ZM298.793 41.3636L297.917 41.8459L297.917 41.8459L298.793 41.3636ZM300.157 71V72H301.157V71H300.157ZM294.793 71H293.793V72H294.793V71ZM294.793 66.2727H295.793V65.2727H294.793V66.2727ZM294.52 66.2727V65.2727H293.891L293.619 65.84L294.52 66.2727ZM292.702 68.7045L293.416 69.4054L293.416 69.4054L292.702 68.7045ZM289.316 70.9091L288.921 69.9905L288.921 69.9905L289.316 70.9091ZM290.339 65.75L289.845 64.8801L289.842 64.8823L290.339 65.75ZM293.657 62.5227L292.79 62.0244L292.786 62.032L293.657 62.5227ZM294.793 53.4545H295.793V50.6925L294.025 52.8144L294.793 53.4545ZM293.293 54.2045L293.563 55.1676L293.575 55.1639L293.293 54.2045ZM290.657 54.7727L290.809 55.7612L290.821 55.7591L290.657 54.7727ZM287.77 55.1818L287.884 56.1754L287.898 56.1736L287.77 55.1818ZM285.52 55.4545L285.65 56.4461L285.651 56.446L285.52 55.4545ZM281.611 56.3409L281.924 57.2908L281.931 57.2884L281.611 56.3409ZM278.702 58.1364L277.968 57.4575L277.967 57.4581L278.702 58.1364ZM279.68 65.5909L279.11 66.4132L279.121 66.4202L279.68 65.5909ZM284.157 71.8182V70.8182C282.073 70.8182 280.211 70.4264 278.554 69.6604L278.134 70.5682L277.715 71.4759C279.663 72.3766 281.816 72.8182 284.157 72.8182V71.8182ZM278.134 70.5682L278.56 69.6634C276.914 68.889 275.626 67.7872 274.671 66.3544L273.839 66.9091L273.007 67.4638C274.173 69.2128 275.748 70.5504 277.708 71.473L278.134 70.5682ZM273.839 66.9091L274.673 66.358C273.739 64.9432 273.248 63.2038 273.248 61.0909H272.248H271.248C271.248 63.5235 271.817 65.6629 273.004 67.4602L273.839 66.9091ZM272.248 61.0909H273.248C273.248 59.2145 273.618 57.7972 274.274 56.7628L273.43 56.2273L272.585 55.6917C271.665 57.1422 271.248 58.9673 271.248 61.0909H272.248ZM273.43 56.2273L274.277 56.7582C274.972 55.6486 275.896 54.7833 277.064 54.1525L276.589 53.2727L276.113 52.3929C274.645 53.1864 273.463 54.2908 272.582 55.6964L273.43 56.2273ZM276.589 53.2727L277.064 54.1525C278.293 53.4885 279.659 52.9889 281.166 52.6587L280.952 51.6818L280.738 50.705C279.064 51.0717 277.52 51.6327 276.113 52.3929L276.589 53.2727ZM280.952 51.6818L281.173 52.6571C282.749 52.3003 284.333 52.0178 285.923 51.8097L285.793 50.8182L285.663 49.8266C284.011 50.0428 282.367 50.3361 280.731 50.7065L280.952 51.6818ZM285.793 50.8182L285.921 51.81C288.038 51.5378 289.749 51.3344 291.055 51.1992L290.952 50.2045L290.849 49.2099C289.52 49.3474 287.791 49.5531 285.666 49.8263L285.793 50.8182ZM290.952 50.2045L291.065 51.1981C292.432 51.0428 293.57 50.7753 294.36 50.3214L293.861 49.4545L293.363 48.5876C292.94 48.8307 292.139 49.0633 290.839 49.2109L290.952 50.2045ZM293.861 49.4545L294.351 50.3267C295.359 49.7608 295.793 48.7708 295.793 47.6364H294.793H293.793C293.793 48.2292 293.606 48.4513 293.372 48.5824L293.861 49.4545ZM294.793 47.6364H295.793V47.4545H294.793H293.793V47.6364H294.793ZM294.793 47.4545H295.793C295.793 45.0271 295.124 43.0032 293.664 41.5245L292.952 42.2273L292.241 42.93C293.235 43.9362 293.793 45.3971 293.793 47.4545H294.793ZM292.952 42.2273L293.668 41.5289C292.2 40.0243 290.053 39.3636 287.43 39.3636V40.3636V41.3636C289.745 41.3636 291.28 41.9454 292.236 42.9256L292.952 42.2273ZM287.43 40.3636V39.3636C284.733 39.3636 282.483 39.9532 280.796 41.2534L281.407 42.0455L282.017 42.8375C283.24 41.8953 285.004 41.3636 287.43 41.3636V40.3636ZM281.407 42.0455L280.796 41.2534C279.252 42.4435 278.108 43.7589 277.432 45.2153L278.339 45.6364L279.246 46.0575C279.751 44.9683 280.652 43.8899 282.017 42.8375L281.407 42.0455ZM278.339 45.6364L278.675 44.6946L273.584 42.8764L273.248 43.8182L272.911 44.7599L278.002 46.5781L278.339 45.6364ZM273.248 43.8182L274.167 44.2121C275.023 42.2149 276.141 40.7112 277.499 39.6521L276.884 38.8636L276.269 38.0751C274.597 39.3797 273.291 41.179 272.329 43.4243L273.248 43.8182ZM276.884 38.8636L277.5 39.6513C278.927 38.5349 280.471 37.7651 282.136 37.3313L281.884 36.3636L281.632 35.3959C279.691 35.9016 277.901 36.7984 276.268 38.076L276.884 38.8636ZM281.884 36.3636L282.142 37.3299C283.882 36.8659 285.583 36.6364 287.248 36.6364V35.6364V34.6364C285.397 34.6364 283.523 34.8917 281.626 35.3974L281.884 36.3636ZM287.248 35.6364V36.6364C288.291 36.6364 289.515 36.7636 290.927 37.0283L291.111 36.0455L291.296 35.0626C289.798 34.7818 288.447 34.6364 287.248 34.6364V35.6364ZM291.111 36.0455L290.939 37.0304C292.28 37.2655 293.581 37.7573 294.847 38.5166L295.361 37.6591L295.876 36.8016C294.414 35.9245 292.882 35.3406 291.284 35.0605L291.111 36.0455ZM295.361 37.6591L294.851 38.5191C296.051 39.2313 297.079 40.3229 297.917 41.8459L298.793 41.3636L299.669 40.8814C298.689 39.1013 297.429 37.7232 295.872 36.7991L295.361 37.6591ZM298.793 41.3636L297.917 41.8459C298.716 43.2963 299.157 45.3221 299.157 48H300.157H301.157C301.157 45.1324 300.689 42.734 299.669 40.8814L298.793 41.3636ZM300.157 48H299.157V71H300.157H301.157V48H300.157ZM300.157 71V70H294.793V71V72H300.157V71ZM294.793 71H295.793V66.2727H294.793H293.793V71H294.793ZM294.793 66.2727V65.2727H294.52V66.2727V67.2727H294.793V66.2727ZM294.52 66.2727L293.619 65.84C293.319 66.4653 292.791 67.187 291.989 68.0037L292.702 68.7045L293.416 69.4054C294.31 68.4948 294.995 67.5953 295.422 66.7055L294.52 66.2727ZM292.702 68.7045L291.989 68.0037C291.252 68.7537 290.241 69.4225 288.921 69.9905L289.316 70.9091L289.711 71.8277C291.209 71.1835 292.455 70.3827 293.416 69.4054L292.702 68.7045ZM289.316 70.9091L288.921 69.9905C287.67 70.5285 286.093 70.8182 284.157 70.8182V71.8182V72.8182C286.281 72.8182 288.144 72.5018 289.711 71.8277L289.316 70.9091ZM284.975 67V68C287.225 68 289.195 67.5578 290.836 66.6177L290.339 65.75L289.842 64.8823C288.573 65.6088 286.967 66 284.975 66V67ZM290.339 65.75L290.832 66.6199C292.441 65.7076 293.686 64.508 294.528 63.0135L293.657 62.5227L292.786 62.032C292.142 63.1738 291.176 64.1257 289.845 64.8801L290.339 65.75ZM293.657 62.5227L294.524 63.021C295.364 61.5584 295.793 60.0011 295.793 58.3636H294.793H293.793C293.793 59.6353 293.464 60.8507 292.79 62.0244L293.657 62.5227ZM294.793 58.3636H295.793V53.4545H294.793H293.793V58.3636H294.793ZM294.793 53.4545L294.025 52.8144C294.036 52.8014 293.99 52.8573 293.801 52.9522C293.621 53.0419 293.363 53.1416 293.011 53.2452L293.293 54.2045L293.575 55.1639C293.996 55.0402 294.374 54.9013 294.695 54.741C295.005 54.5859 295.323 54.3804 295.561 54.0947L294.793 53.4545ZM293.293 54.2045L293.024 53.2416C292.309 53.4417 291.466 53.624 290.492 53.7863L290.657 54.7727L290.821 55.7591C291.847 55.5881 292.762 55.3916 293.563 55.1675L293.293 54.2045ZM290.657 54.7727L290.505 53.7844C289.528 53.9347 288.573 54.0699 287.642 54.19L287.77 55.1818L287.898 56.1736C288.846 56.0513 289.816 55.9138 290.809 55.7611L290.657 54.7727ZM287.77 55.1818L287.656 54.1883C286.73 54.2947 285.973 54.3863 285.39 54.4631L285.52 55.4545L285.651 56.446C286.219 56.3713 286.963 56.2811 287.884 56.1753L287.77 55.1818ZM285.52 55.4545L285.391 54.4629C283.939 54.6524 282.571 54.9615 281.292 55.3934L281.611 56.3409L281.931 57.2884C283.076 56.9021 284.314 56.6203 285.65 56.4461L285.52 55.4545ZM281.611 56.3409L281.299 55.391C279.965 55.8299 278.842 56.5119 277.968 57.4575L278.702 58.1364L279.437 58.8152C280.047 58.1547 280.863 57.6398 281.924 57.2908L281.611 56.3409ZM278.702 58.1364L277.967 57.4581C277.027 58.4769 276.611 59.8195 276.611 61.3636H277.611H278.611C278.611 60.1805 278.923 59.3716 279.437 58.8146L278.702 58.1364ZM277.611 61.3636H276.611C276.611 63.5128 277.428 65.2487 279.11 66.4131L279.68 65.5909L280.249 64.7687C279.173 64.024 278.611 62.9418 278.611 61.3636H277.611ZM279.68 65.5909L279.121 66.4202C280.719 67.4975 282.693 68 284.975 68V67V66C282.984 66 281.428 65.5631 280.238 64.7616L279.68 65.5909Z" fill="black" mask="url(#path-2-outside-1_2010_312)"/>
<path d="M48.3624 62.4788H61.6397V75.7551C61.6397 77.5558 61.2914 79.2769 60.5958 80.9221C59.9234 82.5101 58.9763 83.9163 57.7511 85.1428C56.5244 86.3684 55.1176 87.316 53.5294 87.9885C51.8842 88.6842 50.163 89.0325 48.3624 89.0325C46.5608 89.0324 44.8401 88.6849 43.1964 87.9895C41.6081 87.317 40.2022 86.3684 38.9766 85.1428C37.7501 83.9162 36.8014 82.5102 36.129 80.9221C35.4334 79.277 35.086 77.5557 35.086 75.7551C35.0861 73.9548 35.4335 72.234 36.129 70.5891C36.8014 69.0009 37.7501 67.5949 38.9766 66.3694C40.2022 65.1428 41.6082 64.1942 43.1964 63.5217C44.8413 62.8262 46.562 62.4788 48.3624 62.4788Z" fill="#0ACF83" stroke="black"/>
<path d="M48.3624 34.9233H61.6397V61.479H48.3624C46.5619 61.4789 44.8414 61.1306 43.1964 60.4351C41.6082 59.7626 40.2021 58.8149 38.9766 57.5884V57.5874C37.7501 56.3608 36.8014 54.9548 36.129 53.3667C35.4334 51.7216 35.086 50.0003 35.086 48.1997C35.0861 46.3993 35.4335 44.6786 36.129 43.0337C36.8014 41.4455 37.7501 40.0395 38.9766 38.814C40.2022 37.5874 41.6082 36.6388 43.1964 35.9663C44.8413 35.2708 46.562 34.9234 48.3624 34.9233Z" fill="#A259FF" stroke="black"/>
<path d="M48.3624 7.36816H61.6397V33.9238H48.3624C46.5608 33.9238 44.8402 33.5754 43.1964 32.8799C41.6081 32.2074 40.2022 31.2597 38.9766 30.0342C37.8268 28.8843 36.9216 27.5767 36.2589 26.1094L36.129 25.8135C35.4333 24.1683 35.086 22.4471 35.086 20.6465C35.086 18.8461 35.4335 17.1254 36.129 15.4805C36.8014 13.8923 37.75 12.4855 38.9766 11.2588C40.2022 10.0322 41.6082 9.08358 43.1964 8.41113C44.8413 7.71565 46.562 7.36822 48.3624 7.36816Z" fill="#F24E1E" stroke="black"/>
<path d="M75.918 7.36816C77.606 7.36816 79.2242 7.67378 80.7754 8.28516L81.0849 8.41113C82.5738 9.04153 83.9023 9.91493 85.0732 11.0322L85.3056 11.2588C86.4547 12.4089 87.3597 13.7168 88.0224 15.1846L88.1514 15.4805C88.8468 17.1243 89.1953 18.8448 89.1953 20.6465C89.1953 22.3345 88.8896 23.9527 88.2783 25.5039L88.1514 25.8135C87.5209 27.3025 86.6487 28.6317 85.5322 29.8027L85.3056 30.0342C84.1557 31.1831 82.8484 32.0883 81.3808 32.751L81.0849 32.8799C79.4397 33.5756 77.7187 33.9238 75.918 33.9238H62.6396V7.36816H75.918Z" fill="#FF7262" stroke="black"/>
<path d="M75.918 34.9233C77.606 34.9233 79.2242 35.229 80.7754 35.8403L81.0849 35.9663C82.6731 36.6387 84.079 37.5874 85.3056 38.814C86.5312 40.0395 87.4789 41.4454 88.1514 43.0337C88.8469 44.6775 89.1952 46.3981 89.1953 48.1997C89.1953 50.0003 88.847 51.7216 88.1514 53.3667C87.4789 54.9549 86.5311 56.3608 85.3056 57.5874C84.1557 58.7373 82.8483 59.6434 81.3808 60.3062L81.0849 60.4351C79.4397 61.1307 77.7187 61.479 75.918 61.479C74.1173 61.479 72.3961 61.1307 70.751 60.4351H70.7519C69.1637 59.7626 67.7569 58.8141 66.5303 57.5874C65.3037 56.3608 64.355 54.9548 63.6826 53.3667C62.987 51.7216 62.6396 50.0003 62.6396 48.1997C62.6397 46.3993 62.9871 44.6786 63.6826 43.0337C64.355 41.4455 65.3037 40.0395 66.5303 38.814C67.7569 37.5873 69.1637 36.6388 70.7519 35.9663L70.751 35.9653C72.396 35.2697 74.1174 34.9234 75.918 34.9233Z" fill="#1ABCFE" stroke="black"/>
</svg>
