<svg width="331" height="98" viewBox="0 0 331 98" fill="none" xmlns="http://www.w3.org/2000/svg">
<rect x="0.5" y="0.5" width="330" height="97" rx="16.5" fill="black" stroke="white"/>
<path d="M131.114 41C130.645 39.5653 130.027 38.2798 129.26 37.1435C128.507 35.9929 127.605 35.0128 126.554 34.2031C125.517 33.3935 124.338 32.7756 123.017 32.3494C121.696 31.9233 120.247 31.7102 118.67 31.7102C116.085 31.7102 113.734 32.3778 111.618 33.7131C109.501 35.0483 107.818 37.0156 106.568 39.6151C105.318 42.2145 104.693 45.4034 104.693 49.1818C104.693 52.9602 105.325 56.1491 106.589 58.7486C107.854 61.348 109.565 63.3153 111.724 64.6506C113.884 65.9858 116.313 66.6534 119.011 66.6534C121.511 66.6534 123.713 66.1207 125.616 65.0554C127.534 63.9759 129.026 62.456 130.091 60.4957C131.17 58.5213 131.71 56.1989 131.71 53.5284L133.33 53.8693H120.205V49.1818H136.824V53.8693C136.824 57.4631 136.057 60.5881 134.523 63.2443C133.003 65.9006 130.901 67.9602 128.216 69.4233C125.545 70.8722 122.477 71.5966 119.011 71.5966C115.148 71.5966 111.753 70.6875 108.827 68.8693C105.915 67.0511 103.642 64.4659 102.009 61.1136C100.389 57.7614 99.5795 53.7841 99.5795 49.1818C99.5795 45.7301 100.041 42.6264 100.964 39.8707C101.902 37.1009 103.223 34.7429 104.928 32.7969C106.632 30.8509 108.649 29.3594 110.979 28.3224C113.308 27.2855 115.872 26.767 118.67 26.767C120.972 26.767 123.116 27.1151 125.105 27.8111C127.108 28.4929 128.891 29.4659 130.453 30.7301C132.03 31.9801 133.344 33.4787 134.395 35.2259C135.446 36.9588 136.17 38.8835 136.568 41H131.114ZM153.243 71V38.2727H158.271V71H153.243ZM155.8 32.8182C154.82 32.8182 153.974 32.4844 153.264 31.8168C152.568 31.1491 152.22 30.3466 152.22 29.4091C152.22 28.4716 152.568 27.669 153.264 27.0014C153.974 26.3338 154.82 26 155.8 26C156.78 26 157.618 26.3338 158.314 27.0014C159.024 27.669 159.379 28.4716 159.379 29.4091C159.379 30.3466 159.024 31.1491 158.314 31.8168C157.618 32.4844 156.78 32.8182 155.8 32.8182ZM187.714 38.2727V42.5341H170.754V38.2727H187.714ZM175.697 30.4318H180.725V61.625C180.725 63.0455 180.931 64.1108 181.343 64.821C181.77 65.517 182.309 65.9858 182.963 66.2273C183.63 66.4545 184.333 66.5682 185.072 66.5682C185.626 66.5682 186.081 66.5398 186.436 66.483C186.791 66.4119 187.075 66.3551 187.288 66.3125L188.311 70.8295C187.97 70.9574 187.494 71.0852 186.883 71.2131C186.272 71.3551 185.498 71.4261 184.561 71.4261C183.14 71.4261 181.748 71.1207 180.385 70.5099C179.035 69.8991 177.913 68.9688 177.018 67.7188C176.137 66.4688 175.697 64.892 175.697 62.9886V30.4318ZM202.663 71V27.3636H207.947V46.7955H231.214V27.3636H236.498V71H231.214V51.483H207.947V71H202.663ZM273.02 57.6193V38.2727H278.049V71H273.02V65.4602H272.679C271.912 67.1222 270.719 68.5355 269.1 69.7003C267.48 70.8509 265.435 71.4261 262.963 71.4261C260.918 71.4261 259.1 70.9787 257.509 70.0838C255.918 69.1747 254.668 67.8111 253.759 65.9929C252.85 64.1605 252.395 61.8523 252.395 59.0682V38.2727H257.424V58.7273C257.424 61.1136 258.091 63.017 259.426 64.4375C260.776 65.858 262.495 66.5682 264.583 66.5682C265.833 66.5682 267.104 66.2486 268.397 65.6094C269.703 64.9702 270.797 63.9901 271.678 62.669C272.573 61.348 273.02 59.6648 273.02 57.6193ZM293.94 71V27.3636H298.969V43.4716H299.395C299.764 42.9034 300.276 42.179 300.929 41.2983C301.597 40.4034 302.548 39.608 303.784 38.9119C305.034 38.2017 306.724 37.8466 308.855 37.8466C311.611 37.8466 314.04 38.5355 316.142 39.9134C318.244 41.2912 319.885 43.2443 321.064 45.7727C322.243 48.3011 322.832 51.2841 322.832 54.7216C322.832 58.1875 322.243 61.1918 321.064 63.7344C319.885 66.2628 318.251 68.223 316.163 69.6151C314.075 70.9929 311.668 71.6818 308.94 71.6818C306.838 71.6818 305.155 71.3338 303.891 70.6378C302.626 69.9276 301.653 69.125 300.972 68.2301C300.29 67.321 299.764 66.5682 299.395 65.9716H298.798V71H293.94ZM298.884 54.6364C298.884 57.108 299.246 59.2884 299.97 61.1776C300.695 63.0526 301.753 64.5227 303.145 65.5881C304.537 66.6392 306.241 67.1648 308.259 67.1648C310.361 67.1648 312.115 66.6108 313.521 65.5028C314.942 64.3807 316.007 62.875 316.717 60.9858C317.442 59.0824 317.804 56.9659 317.804 54.6364C317.804 52.3352 317.449 50.2614 316.739 48.4148C316.043 46.554 314.984 45.0838 313.564 44.0043C312.158 42.9105 310.389 42.3636 308.259 42.3636C306.213 42.3636 304.494 42.8821 303.102 43.919C301.71 44.9418 300.659 46.3764 299.949 48.223C299.239 50.0554 298.884 52.1932 298.884 54.6364Z" fill="white"/>
<g clip-path="url(#clip0_2010_265)">
<path d="M48.5 4.95828C37.0741 4.84218 26.0696 9.26735 17.905 17.2613C9.74035 25.2552 5.08367 36.1638 4.95834 47.5895C5.00237 56.6192 7.90708 65.4025 13.2553 72.678C18.6034 79.9536 26.1199 85.3469 34.725 88.0833C36.9021 88.4791 37.6938 87.1729 37.6938 86.025C37.6938 84.877 37.6938 82.3437 37.6938 78.7812C25.5813 81.3541 23.0083 73.0812 23.0083 73.0812C22.202 70.4841 20.4878 68.2641 18.1792 66.827C14.2208 64.2145 18.4958 64.2541 18.4958 64.2541C19.864 64.437 21.1731 64.9273 22.3248 65.6883C23.4765 66.4492 24.4409 67.4611 25.1458 68.6479C26.3742 70.7779 28.3898 72.3406 30.7588 72.9994C33.1278 73.6583 35.6607 73.3607 37.8125 72.1708C38.0338 70.0031 39.0154 67.9838 40.5833 66.4708C30.925 65.402 20.7917 61.7604 20.7917 45.4125C20.7053 41.1481 22.281 37.0173 25.1854 33.8937C23.8627 30.2325 24.0189 26.1999 25.6208 22.652C25.6208 22.652 29.3021 21.5041 37.4958 27.0062C44.6283 25.1056 52.1342 25.1056 59.2667 27.0062C67.5792 21.5041 71.1417 22.652 71.1417 22.652C72.7437 26.1999 72.8999 30.2325 71.5771 33.8937C74.549 36.96 76.2101 41.0631 76.2083 45.3333C76.2083 61.7208 65.9958 65.3229 56.4167 66.3916C57.4656 67.41 58.2758 68.6481 58.7891 70.0169C59.3024 71.3858 59.5061 72.8514 59.3854 74.3083V85.9854C59.3854 85.9854 60.1771 88.4791 62.3542 88.0437C70.9349 85.2903 78.426 79.8957 83.7577 72.6305C89.0893 65.3653 91.9887 56.601 92.0417 47.5895C91.9164 36.1638 87.2597 25.2552 79.095 17.2613C70.9304 9.26735 59.9259 4.84218 48.5 4.95828Z" fill="white"/>
</g>
<defs>
<clipPath id="clip0_2010_265">
<rect x="1" y="1" width="95" height="95" rx="16" fill="white"/>
</clipPath>
</defs>
</svg>
