<svg width="329" height="96" viewBox="0 0 329 96" fill="none" xmlns="http://www.w3.org/2000/svg">
<g clip-path="url(#clip0_2018_37)">
<path d="M316.809 95.9999H12.1913C5.48956 95.9999 0.00640869 90.6001 0.00640869 84.0001V12.0015C0.00640869 5.40156 5.48956 0.00170898 12.1913 0.00170898H316.809C323.51 0.00170898 328.994 5.40156 328.994 12.0015V84.0001C328.994 90.6001 323.51 95.9999 316.809 95.9999Z" fill="#100F0D"/>
<path d="M316.809 0.00170898H12.1913C5.48956 0.00170898 0.00640869 5.40156 0.00640869 12.0015V84.0001C0.00640869 90.6001 5.48956 95.9999 12.1913 95.9999H316.809C323.51 95.9999 328.994 90.6001 328.994 84.0001V12.0015C328.994 5.40156 323.51 0.00170898 316.809 0.00170898ZM316.809 1.9207C322.453 1.9207 327.044 6.44323 327.044 12.0015V84.0001C327.044 89.5584 322.453 94.0809 316.809 94.0809H12.1913C6.54729 94.0809 1.95701 89.5584 1.95701 84.0001V12.0015C1.95701 6.44323 6.54729 1.9207 12.1913 1.9207H316.809Z" fill="#A2A2A1"/>
<path d="M260.605 72.0006H265.152V41.9962H260.605V72.0006ZM301.563 52.8052L296.351 65.8128H296.195L290.785 52.8052H285.886L294.002 70.9853L289.374 81.0987H294.116L306.62 52.8061L301.563 52.8052ZM275.773 68.5924C274.287 68.5924 272.208 67.8583 272.208 66.0443C272.208 63.7286 274.796 62.8408 277.028 62.8408C279.027 62.8408 279.97 63.2647 281.184 63.844C280.83 66.6236 278.4 68.5924 275.773 68.5924ZM276.324 52.1489C273.032 52.1489 269.622 53.5776 268.211 56.7428L272.247 58.4021C273.11 56.7428 274.716 56.2028 276.402 56.2028C278.754 56.2028 281.144 57.5912 281.183 60.0624V60.3708C280.36 59.9076 278.595 59.2131 276.441 59.2131C272.089 59.2131 267.661 61.5669 267.661 65.9674C267.661 69.9818 271.228 72.5683 275.225 72.5683C278.281 72.5683 279.97 71.2173 281.025 69.6341H281.183V71.9514H285.575V60.4475C285.575 55.1208 281.534 52.1489 276.324 52.1489ZM248.22 56.4576H241.752V46.1736H248.22C251.62 46.1736 253.55 48.9449 253.55 51.3155C253.55 53.6406 251.62 56.4576 248.22 56.4576ZM248.103 41.9969H237.207V72.0013H241.753V60.6344H248.103C253.143 60.6344 258.097 57.0419 258.097 51.3166C258.097 45.5924 253.143 41.9969 248.103 41.9969ZM188.688 68.5975C185.546 68.5975 182.917 66.0062 182.917 62.4504C182.917 58.8533 185.546 56.2254 188.688 56.2254C191.789 56.2254 194.223 58.8535 194.223 62.4504C194.223 66.0062 191.789 68.5975 188.688 68.5975ZM193.909 54.4848H193.752C192.731 53.2865 190.767 52.2038 188.295 52.2038C183.112 52.2038 178.362 56.6897 178.362 62.4504C178.362 68.1719 183.112 72.6183 188.295 72.6183C190.767 72.6183 192.731 71.5354 193.752 70.299H193.909V71.7671C193.909 75.6736 191.789 77.7604 188.373 77.7604C185.587 77.7604 183.859 75.7888 183.152 74.1265L179.187 75.7502C180.325 78.4556 183.347 81.7821 188.374 81.7821C193.714 81.7821 198.229 78.6882 198.229 71.1481V52.8222H193.909L193.909 54.4848ZM201.37 71.9997H205.923V41.9953H201.37V71.9997ZM212.637 62.1018C212.52 58.1577 215.74 56.1477 218.055 56.1477C219.862 56.1477 221.392 57.0373 221.904 58.3124L212.637 62.1018ZM226.77 58.6986C225.907 56.4188 223.277 52.2038 217.898 52.2038C212.558 52.2038 208.122 56.3408 208.122 62.4112C208.122 68.1336 212.52 72.6185 218.407 72.6185C223.158 72.6185 225.907 69.7583 227.046 68.0951L223.513 65.7749C222.334 67.4764 220.725 68.5976 218.407 68.5976C216.092 68.5976 214.443 67.5534 213.384 65.5041L227.241 59.8595L226.77 58.6986ZM116.356 55.3359V59.6662H126.878C126.564 62.1019 125.739 63.8802 124.483 65.1177C122.951 66.6251 120.556 68.2882 116.356 68.2882C109.878 68.2882 104.813 63.1461 104.813 56.7665C104.813 50.3869 109.878 45.2441 116.356 45.2441C119.85 45.2441 122.402 46.5977 124.286 48.3376L127.389 45.2824C124.757 42.8083 121.264 40.9138 116.356 40.9138C107.482 40.9138 100.022 48.0282 100.022 56.7665C100.022 65.5039 107.482 72.6185 116.356 72.6185C121.145 72.6185 124.758 71.0717 127.584 68.1721C130.489 65.3108 131.393 61.2899 131.393 58.0416C131.393 57.0375 131.313 56.1095 131.156 55.3359H116.356ZM143.356 68.5975C140.214 68.5975 137.505 66.0456 137.505 62.4112C137.505 58.7381 140.214 56.2256 143.356 56.2256C146.496 56.2256 149.205 58.7381 149.205 62.4112C149.205 66.0456 146.496 68.5975 143.356 68.5975ZM143.356 52.2038C137.622 52.2038 132.951 56.4954 132.951 62.4112C132.951 68.2882 137.622 72.6185 143.356 72.6185C149.088 72.6185 153.76 68.2882 153.76 62.4112C153.76 56.4954 149.088 52.2038 143.356 52.2038ZM166.051 68.5975C162.912 68.5975 160.202 66.0456 160.202 62.4112C160.202 58.7381 162.912 56.2256 166.051 56.2256C169.193 56.2256 171.901 58.7381 171.901 62.4112C171.901 66.0456 169.193 68.5975 166.051 68.5975ZM166.051 52.2038C160.32 52.2038 155.649 56.4954 155.649 62.4112C155.649 68.2882 160.32 72.6185 166.051 72.6185C171.785 72.6185 176.456 68.2882 176.456 62.4112C176.456 56.4954 171.785 52.2038 166.051 52.2038Z" fill="white"/>
<path d="M50.4869 46.6185L24.5434 73.7375C24.5444 73.743 24.5463 73.7477 24.5472 73.7535C25.3429 76.6983 28.0741 78.8666 31.3155 78.8666C32.6112 78.8666 33.8278 78.5216 34.8711 77.916L34.9539 77.8682L64.1582 61.2721L50.4869 46.6185Z" fill="#EB3131"/>
<path d="M76.7356 42.0014L76.7107 41.9846L64.1023 34.7864L49.8974 47.2345L64.1517 61.2705L76.6935 54.1439C78.8924 52.9749 80.3851 50.692 80.3851 48.0595C80.3851 45.4459 78.9126 43.1742 76.7356 42.0014Z" fill="#F6B60B"/>
<path d="M24.5398 22.2661C24.3838 22.8325 24.3018 23.4258 24.3018 24.0418V71.9635C24.3018 72.5785 24.3828 73.1737 24.5407 73.7381L51.3798 47.3122L24.5398 22.2661Z" fill="#5778C5"/>
<path d="M50.6788 48.0028L64.108 34.7815L34.9367 18.1253C33.8764 17.4999 32.6388 17.1389 31.3146 17.1389C28.0732 17.1389 25.3383 19.3112 24.5425 22.2594C24.5415 22.2623 24.5415 22.2643 24.5415 22.2668L50.6788 48.0028Z" fill="#3BAD49"/>
<path d="M115.503 23.4757H108.394V25.2082H113.721C113.576 26.6221 113.005 27.732 112.042 28.5383C111.078 29.3446 109.848 29.7495 108.394 29.7495C106.798 29.7495 105.446 29.2021 104.339 28.1147C103.253 27.0047 102.701 25.6321 102.701 23.9784C102.701 22.3249 103.253 20.9523 104.339 19.8424C105.446 18.7549 106.798 18.2111 108.394 18.2111C109.212 18.2111 109.993 18.3498 110.709 18.6537C111.425 18.9573 112 19.3811 112.449 19.9249L113.801 18.5937C113.188 17.9073 112.411 17.3824 111.447 16.9999C110.484 16.6173 109.479 16.4337 108.393 16.4337C106.265 16.4337 104.46 17.1611 102.987 18.6125C101.513 20.0673 100.774 21.8599 100.774 23.9785C100.774 26.0971 101.513 27.8935 102.987 29.3448C104.46 30.7958 106.265 31.5236 108.393 31.5236C110.629 31.5236 112.411 30.8185 113.782 29.3859C114.989 28.1936 115.605 26.5811 115.605 24.5637C115.605 24.2224 115.564 23.8583 115.503 23.4757ZM118.257 16.7559V31.2008H126.82V29.427H120.142V24.8447H126.166V23.1122H120.142V18.5335H126.82V16.7559L118.257 16.7559ZM138.828 18.5336V16.7559H128.749V18.5336H132.847V31.2008H134.731V18.5336H138.828ZM147.954 16.7559H146.069V31.2008H147.954V16.7559ZM160.395 18.5336V16.7559H150.316V18.5336H154.412V31.2008H156.297V18.5336H160.395ZM179.414 18.6348C177.96 17.161 176.178 16.4336 174.049 16.4336C171.917 16.4336 170.135 17.161 168.68 18.6123C167.226 20.0449 166.51 21.841 166.51 23.9783C166.51 26.1157 167.226 27.9121 168.68 29.3447C170.135 30.7957 171.917 31.5234 174.049 31.5234C176.159 31.5234 177.96 30.7958 179.414 29.3447C180.869 27.9122 181.585 26.1159 181.585 23.9783C181.585 21.8597 180.869 20.0671 179.414 18.6348ZM170.032 19.8422C171.117 18.7548 172.45 18.211 174.049 18.211C175.645 18.211 176.977 18.7548 178.044 19.8422C179.129 20.9109 179.662 22.3057 179.662 23.9783C179.662 25.6547 179.129 27.0457 178.044 28.1146C176.977 29.202 175.645 29.7494 174.049 29.7494C172.45 29.7494 171.117 29.202 170.032 28.1146C168.97 27.0233 168.437 25.6547 168.437 23.9783C168.437 22.3058 168.97 20.9334 170.032 19.8422ZM186.063 22.2048L185.983 19.4183H186.063L193.519 31.2007H195.487V16.7558H193.602V25.2081L193.682 27.9945H193.602L186.474 16.7558H184.178V31.2007H186.063V22.2048Z" fill="white" stroke="white" stroke-width="0.26666" stroke-miterlimit="10"/>
</g>
<rect x="0.5" y="0.5" width="328" height="95" rx="15.5" stroke="white"/>
<defs>
<clipPath id="clip0_2018_37">
<rect width="329" height="96" rx="16" fill="white"/>
</clipPath>
</defs>
</svg>
