<svg width="50" height="50" viewBox="0 0 50 50" fill="none" xmlns="http://www.w3.org/2000/svg">
<path d="M40 0H10C4.47715 0 0 4.47715 0 10V40C0 45.5228 4.47715 50 10 50H40C45.5228 50 50 45.5228 50 40V10C50 4.47715 45.5228 0 40 0Z" fill="#232323"/>
<g clip-path="url(#clip0_2040_44)">
<path d="M16.1185 33.8815L10.9879 28.751C10.377 28.1252 10 27.241 10 26.3808C10 25.9817 10.2249 25.3571 10.3949 24.9997L15.1306 15.1306L16.1185 33.8815Z" fill="#01579B"/>
<path d="M33.684 16.1185L28.5535 10.9879C28.1055 10.5369 27.1724 10 26.3826 10C25.7037 10 25.0373 10.1366 24.6071 10.3949L15.1347 15.1306L33.684 16.1185Z" fill="#40C4FF"/>
<path d="M22.2364 40H34.6714V34.6714L25.3946 31.7094L16.9077 34.6714L22.2364 40Z" fill="#40C4FF"/>
<path d="M15.1306 31.1188C15.1306 32.7021 15.3292 33.0905 16.1167 33.8821L16.906 34.672H34.6714L25.9882 24.8034L15.1306 15.1306V31.1188Z" fill="#29B6F6"/>
<path d="M30.9219 15.1306H15.1306L34.6714 34.669H40V22.4326L33.6841 16.1161C32.7964 15.2272 32.0089 15.1306 30.9219 15.1306Z" fill="#01579B"/>
<path opacity="0.2" d="M16.3165 34.0778C15.5273 33.2861 15.331 32.5052 15.331 31.1188V15.3286L15.1347 15.1306V31.1188C15.1347 32.5058 15.1347 32.89 16.3165 34.0784L16.9077 34.6696L16.3165 34.0778Z" fill="white"/>
<path opacity="0.2" d="M39.8037 22.2364V34.4727H34.4751L34.6714 34.6714H40V22.4326L39.8037 22.2364Z" fill="#263238"/>
<path opacity="0.2" d="M33.684 16.1185C32.7063 15.1389 31.9057 15.1306 30.7256 15.1306H15.1347L15.331 15.3268H30.7256C31.3144 15.3268 32.8011 15.2278 33.6852 16.1167L33.684 16.1185Z" fill="white"/>
<path opacity="0.2" d="M39.8037 22.2364L33.6841 16.1185L28.5535 10.9879C28.1055 10.5369 27.1724 10 26.3826 10C25.7037 10 25.0373 10.1366 24.6072 10.3949L15.1347 15.1306L10.3967 24.9997C10.2273 25.3594 10 25.9835 10 26.3808C10 27.2428 10.3794 28.1228 10.9855 28.7492L15.717 33.4454C15.8429 33.5981 15.9769 33.7439 16.1185 33.8821L16.3148 34.0784L16.9054 34.6696L22.0359 39.8001L22.2322 39.9964H34.6648V34.669H39.9934V22.4326L39.8037 22.2364Z" fill="url(#paint0_radial_2040_44)"/>
</g>
<defs>
<radialGradient id="paint0_radial_2040_44" cx="0" cy="0" r="1" gradientUnits="userSpaceOnUse" gradientTransform="translate(24.9991 24.9985) scale(14.9979 14.9979)">
<stop stop-color="white" stop-opacity="0.1"/>
<stop offset="1" stop-color="white" stop-opacity="0"/>
</radialGradient>
<clipPath id="clip0_2040_44">
<rect width="30" height="30" fill="white" transform="translate(10 10)"/>
</clipPath>
</defs>
</svg>
