<svg width="50" height="50" viewBox="0 0 50 50" fill="none" xmlns="http://www.w3.org/2000/svg">
<path d="M40 0H10C4.47715 0 0 4.47715 0 10V40C0 45.5228 4.47715 50 10 50H40C45.5228 50 50 45.5228 50 40V10C50 4.47715 45.5228 0 40 0Z" fill="#232323"/>
<path fill-rule="evenodd" clip-rule="evenodd" d="M37.731 9.44446C38.6742 9.44446 39.5473 9.9525 39.9897 10.7784C40.4135 11.5695 40.3955 12.5017 39.9427 13.2754L39.9272 13.3015L35.9584 19.91C35.5095 20.6573 34.6993 21.1237 33.8333 21.1336L33.805 21.1338L29.2728 21.1338L31.1566 25.4264L31.1641 25.439L31.1757 25.4592C31.6193 26.2573 31.6085 27.2062 31.1484 27.9924L31.1329 28.0186L27.164 34.6271C26.7152 35.3744 25.905 35.8408 25.039 35.8508L25.0107 35.8509L19.448 35.8509L15.4491 40.0492L15.4415 40.057C15.0652 40.4377 14.5568 40.6501 14.0267 40.6501C13.8942 40.6501 13.7616 40.6368 13.6304 40.6102C12.9837 40.4788 12.4465 40.0371 12.1879 39.428L12.1806 39.4106L10.0761 34.602L10.0651 34.5836L10.0536 34.5637C10.0516 34.5604 10.0497 34.5569 10.0477 34.5532C9.60405 33.7552 9.6148 32.8063 10.0748 32.0201L10.0903 31.9939L13.9397 25.5843L11.1033 19.1208L11.1552 19.0944L11.1545 19.0905C11.0344 18.496 11.1311 17.876 11.4393 17.3329L11.4563 17.3034L11.472 17.2768L15.4409 10.6682C15.8898 9.92099 16.7001 9.45456 17.566 9.44446H17.5943H37.731ZM16.8911 35.8007L12.6741 35.8006L13.9127 38.6525L13.9157 38.66C13.9363 38.7111 13.9695 38.7391 14.0189 38.7492C14.063 38.7582 14.0987 38.7489 14.1324 38.7183L14.1383 38.7126L16.8911 35.8007ZM28.9461 25.9961H16.1992C16.1851 25.9961 16.171 25.9966 16.157 25.9976L16.1531 25.9978L19.6482 33.9557H25.0101C25.2305 33.9557 25.4428 33.8382 25.5635 33.6496L25.5731 33.6341L29.5478 27.0215C29.6663 26.8243 29.6795 26.5954 29.5855 26.3895C29.4772 26.152 29.2257 25.9961 28.9461 25.9961ZM14.8741 27.6302L11.7196 32.9226C11.5941 33.1332 11.5868 33.3799 11.6992 33.597L11.7111 33.6191L11.7175 33.6299L11.7302 33.6506L11.7554 33.6879L11.7836 33.7244L11.8105 33.7551L11.8152 33.76L11.8334 33.7784L11.8493 33.7934C11.9485 33.883 12.0712 33.9377 12.2065 33.9518L12.2369 33.9544L12.2545 33.9553L12.2768 33.9557H17.6291L14.8741 27.6302ZM14.0446 21.1466L15.4301 24.3093L15.4571 24.3002C15.6963 24.2205 15.9465 24.1773 16.1994 24.1733L16.2373 24.173L28.5932 24.173L27.2675 21.1466L14.0446 21.1466ZM37.6958 11.2894H24.9034L28.3995 19.2489H33.7595C33.9803 19.2489 34.1928 19.1314 34.3136 18.9427L34.3231 18.9272L38.298 12.3147C38.4166 12.1175 38.4297 11.8888 38.3358 11.6831C38.2297 11.4505 37.9864 11.2961 37.7136 11.2896L37.6958 11.2894ZM22.9451 11.2894H17.6148C17.3956 11.2894 17.1842 11.4066 17.0639 11.5951L17.0543 11.6105L13.0899 18.2231C12.9715 18.4205 12.9585 18.6497 13.0523 18.8559C13.158 19.0883 13.4 19.2423 13.6712 19.2487L13.6889 19.2489H26.432L22.9451 11.2894Z" fill="#4E39F9"/>
</svg>
