<svg width="50" height="50" viewBox="0 0 50 50" fill="none" xmlns="http://www.w3.org/2000/svg">
<g clip-path="url(#clip0_2038_2)">
<path d="M42.5 0H7.5C3.35786 0 0 3.35786 0 7.5V42.5C0 46.6421 3.35786 50 7.5 50H42.5C46.6421 50 50 46.6421 50 42.5V7.5C50 3.35786 46.6421 0 42.5 0Z" fill="#232323"/>
<path d="M18.6963 33.4854L24.3271 39.1602L39.8193 23.5469H28.5547L18.6963 33.4854Z" fill="#5CC8F8"/>
<path d="M28.5547 6.5127H39.8193L15.8799 30.6465L10.2451 24.9697L28.5547 6.5127Z" fill="#5CC8F8"/>
<path d="M24.3271 39.1602L28.5547 43.417H39.8193L29.9609 33.4854L24.3271 39.1602Z" fill="#075B9D"/>
<path d="M32.6826 36.2461L29.9609 33.4854L24.3271 39.1602L32.6826 36.2461Z" fill="url(#paint0_linear_2038_2)"/>
<path d="M18.6963 33.4834L24.3301 27.8018L29.9648 33.4805L24.3301 39.1602L18.6963 33.4834Z" fill="#16B9FD"/>
</g>
<defs>
<linearGradient id="paint0_linear_2038_2" x1="24.3164" y1="39.1602" x2="31.3477" y2="34.9609" gradientUnits="userSpaceOnUse">
<stop stop-opacity="0.4"/>
<stop offset="1" stop-color="#124793" stop-opacity="0"/>
</linearGradient>
<clipPath id="clip0_2038_2">
<rect width="50" height="50" fill="white"/>
</clipPath>
</defs>
</svg>
